<svg xmlns="http://www.w3.org/2000/svg" xmlns:xlink="http://www.w3.org/1999/xlink" viewBox="0 0 80 80"><defs><style>.cls-1,.cls-2{fill:none;}.cls-1{clip-rule:evenodd;}.cls-3{fill:#ebf1f5;}.cls-4{clip-path:url(#clip-path);}.cls-5{clip-path:url(#clip-path-2);}.cls-6{fill:#676767;}.cls-7{clip-path:url(#clip-path-3);}.cls-8{clip-path:url(#clip-path-5);}.cls-9{isolation:isolate;}.cls-10{clip-path:url(#clip-path-7);}.cls-11{clip-path:url(#clip-path-8);}.cls-12{clip-path:url(#clip-path-9);}.cls-13{clip-path:url(#clip-path-10);}</style><clipPath id="clip-path" transform="translate(0 0)"><path class="cls-1" d="M45.63,46.4a.86.86,0,0,1-.27,0c-5.88-2-12.28,0-12.34,0a.79.79,0,0,1-1-.44.72.72,0,0,1,.48-.92c.28-.09,7-2.21,13.38,0a.7.7,0,0,1,.45.92.77.77,0,0,1-.72.47"/></clipPath><clipPath id="clip-path-2" transform="translate(0 0)"><rect class="cls-2" width="80" height="80"/></clipPath><clipPath id="clip-path-3" transform="translate(0 0)"><path class="cls-1" d="M44.8,42.4a.57.57,0,0,1-.22,0,17.8,17.8,0,0,0-9.17,0,.79.79,0,0,1-1-.61A.87.87,0,0,1,35,40.69a19.1,19.1,0,0,1,10,0,.89.89,0,0,1,.55,1.08.81.81,0,0,1-.77.63"/></clipPath><clipPath id="clip-path-5" transform="translate(0 0)"><rect class="cls-2" x="12" y="14.55" width="55.53" height="56.65"/></clipPath><clipPath id="clip-path-7" transform="translate(0 0)"><rect class="cls-2" x="10.79" y="13.48" width="57.53" height="58.43"/></clipPath><clipPath id="clip-path-8" transform="translate(0 0)"><path class="cls-1" d="M67.27,21.55a12.51,12.51,0,0,0-1.71-3.64,9.62,9.62,0,0,0-2.4-2.72,2.75,2.75,0,0,0-3.73.19,9,9,0,0,0-2.06,2.94q-1.4,3-2.69,6C53.27,27.64,52,31,50.24,34.16c-.33.6-.7,1.17-1.06,1.74a3.92,3.92,0,0,1-3.46,2c-1.84,0-3.67,0-5.51,0h-.89c-1.84,0-3.67,0-5.51,0a3.92,3.92,0,0,1-3.46-2c-.36-.57-.73-1.14-1.06-1.74-1.72-3.17-3-6.52-4.44-9.83q-1.29-3-2.69-6a9,9,0,0,0-2.06-2.94,2.75,2.75,0,0,0-3.73-.19A9.62,9.62,0,0,0,14,17.91a12.51,12.51,0,0,0-1.71,3.64A8.91,8.91,0,0,0,13.77,29c2,2.78,4,5.47,6.06,8.19,1.26,1.69,2.54,3.36,3.8,5.05a3.57,3.57,0,0,1,.74,3c-.34,1.43-.7,2.85-1.1,4.25-.2.7-.38,1.39-.53,2.09H21a.58.58,0,0,0-.58.59v4.28a.58.58,0,0,0,.58.58h1.52a18.68,18.68,0,0,0,1.34,5,13.44,13.44,0,0,0,7,7.41,21.81,21.81,0,0,0,8.39,1.68h1a21.81,21.81,0,0,0,8.39-1.68,13.44,13.44,0,0,0,7-7.41,18.68,18.68,0,0,0,1.34-5h1.52a.58.58,0,0,0,.58-.58V52.2a.58.58,0,0,0-.58-.59H56.79c-.15-.7-.33-1.39-.53-2.09-.4-1.4-.76-2.82-1.09-4.25a3.56,3.56,0,0,1,.72-3c1.26-1.69,2.55-3.36,3.81-5.05,2-2.72,4.11-5.41,6.06-8.19A8.91,8.91,0,0,0,67.27,21.55ZM22.43,55.89H21.6V52.78h12v3.11H22.43ZM54,63.44a12.14,12.14,0,0,1-6.2,5.49,21.49,21.49,0,0,1-7.65,1.39h-.77a21.49,21.49,0,0,1-7.65-1.39,12.14,12.14,0,0,1-6.2-5.49,17.76,17.76,0,0,1-2.09-6.38H34.16a.58.58,0,0,0,.58-.58V54.73h10v1.75a.58.58,0,0,0,.58.58H56.09A18,18,0,0,1,54,63.44Zm3-10.66h.93v3.11H46V52.78H57Zm-1.57-3a16.72,16.72,0,0,1,.46,1.82H53.38A3.76,3.76,0,0,0,52.23,49a1.65,1.65,0,0,0-2.68.26A3.12,3.12,0,0,0,49,51.61H45.37a.58.58,0,0,0-.58.59v1.36h-10V52.2a.58.58,0,0,0-.58-.59H30.52A3.12,3.12,0,0,0,30,49.22,1.65,1.65,0,0,0,27.3,49a3.76,3.76,0,0,0-1.15,2.65H23.64a16.72,16.72,0,0,1,.46-1.82c.43-1.44.8-2.89,1.13-4.35a4.36,4.36,0,0,0-.64-3.4.51.51,0,0,1,.05-.72,8.92,8.92,0,0,1,2.64-2.14,9.07,9.07,0,0,1,3.38-1.13.89.89,0,0,1,.49,0,5.5,5.5,0,0,0,2.76.7c1.61.07,3.23.07,4.84.07h2c1.61,0,3.23,0,4.84-.07a5.5,5.5,0,0,0,2.76-.7.88.88,0,0,1,.49,0,9.07,9.07,0,0,1,3.38,1.13,8.92,8.92,0,0,1,2.64,2.14.51.51,0,0,1,0,.72,4.36,4.36,0,0,0-.64,3.4C54.62,46.9,55,48.35,55.43,49.79Z"/></clipPath><clipPath id="clip-path-9" transform="translate(0 0)"><rect class="cls-2" x="11.69" y="14.38" width="56.63" height="57.53"/></clipPath><clipPath id="clip-path-10" transform="translate(0 0)"><path class="cls-1" d="M32.1,58.67a7.77,7.77,0,0,0-1.68,4.18,4.06,4.06,0,0,0,1.45,3.7,9.67,9.67,0,0,0,3.67,1.79,18.15,18.15,0,0,0,8.12,0,9.67,9.67,0,0,0,3.67-1.79,4.06,4.06,0,0,0,1.45-3.7,7.77,7.77,0,0,0-1.68-4.18,6,6,0,0,0-3-1.94,14.23,14.23,0,0,0-9,0,6,6,0,0,0-3,1.94m6.16,5.87a.42.42,0,0,0-.15-.12l-3.67-2.35c-.39-.25-.44-.52-.24-.8s.49-.29.87-.05l3.21,2.05c.28.17.52.34.84.51a1.08,1.08,0,0,0,.48.16h0a1.08,1.08,0,0,0,.48-.16c.32-.17.56-.34.84-.51l3.21-2.05c.38-.24.67-.22.87.05s.15.55-.24.8l-3.67,2.35a.56.56,0,0,0-.16.12.15.15,0,0,0,0,.16.42.42,0,0,0,.15.11,11.06,11.06,0,0,0,1.36.61c.75.28,1.52.51,2.29.77.26.08.5.26.41.54s-.23.44-.51.47a1.12,1.12,0,0,1-.35-.06,21.4,21.4,0,0,1-4.45-1.77.37.37,0,0,0-.46,0,21.62,21.62,0,0,1-4.45,1.77,1.07,1.07,0,0,1-.35.06c-.28,0-.42-.15-.51-.47s.14-.46.41-.54c.77-.26,1.54-.49,2.29-.77a11.06,11.06,0,0,0,1.36-.61.35.35,0,0,0,.15-.11.13.13,0,0,0,0-.16"/></clipPath></defs><title>Asset 4</title><g id="Layer_2" data-name="Layer 2"><g id="MAIN_MENU" data-name="MAIN MENU"><g id="Dialogue_Box_Icon" data-name="Dialogue Box &amp; Icon"><circle class="cls-3" cx="40" cy="40" r="40"/><g class="cls-4"><g class="cls-5"><rect class="cls-6" x="27.51" y="39.51" width="23.39" height="11.39"/></g></g><g class="cls-7"><g class="cls-5"><rect class="cls-6" x="29.91" y="35.51" width="20.19" height="11.39"/></g></g><g class="cls-8"><g class="cls-5"><g class="cls-9"><g class="cls-10"><g class="cls-11"><g class="cls-12"><rect class="cls-6" x="7.51" y="10.06" width="64.52" height="65.64"/></g></g></g></g></g></g><g class="cls-13"><g class="cls-5"><rect class="cls-6" x="25.91" y="51.51" width="27.39" height="21.79"/></g></g></g></g></g></svg>