<svg xmlns="http://www.w3.org/2000/svg" viewBox="0 0 38 38"><defs><style>.cls-1{fill:#f6f6f6;}</style></defs><title>miro_load</title><g id="Layer_2" data-name="Layer 2"><g id="MAIN_MENU_Drop_Out_" data-name="MAIN MENU (Drop Out)"><g id="MenuDropOutIcons"><g id="Load_Icon" data-name="Load Icon"><path class="cls-1" d="M11.29,19.43c.48.65,1,1.3,1.47,1.95A1.38,1.38,0,0,1,13,22.55q-.19.84-.42,1.65a5.67,5.67,0,0,0-.21.81,18.52,18.52,0,0,0-.08,2.11,5.88,5.88,0,0,0,.52,1.95,5.21,5.21,0,0,0,2.7,2.87,8.64,8.64,0,0,0,3.25.65h.4a8.64,8.64,0,0,0,3.25-.65,5.21,5.21,0,0,0,2.7-2.87,5.63,5.63,0,0,0,.51-1.95A16.47,16.47,0,0,0,25.59,25a5.67,5.67,0,0,0-.21-.81q-.22-.81-.42-1.65a1.38,1.38,0,0,1,.28-1.17c.49-.65,1-1.3,1.47-1.95.79-1.06,1.59-2.1,2.35-3.17a3.48,3.48,0,0,0,.58-2.89A4.61,4.61,0,0,0,29,12a3.63,3.63,0,0,0-.93-1.06,1.06,1.06,0,0,0-1.44.08,3.37,3.37,0,0,0-.8,1.14c-.36.77-.71,1.54-1,2.32-.54,1.28-1.05,2.58-1.72,3.81-.12.23-.27.45-.41.67a1.52,1.52,0,0,1-1.34.76H16.7a1.5,1.5,0,0,1-1.34-.76c-.14-.22-.29-.44-.41-.67-.67-1.23-1.18-2.53-1.72-3.81-.33-.78-.68-1.55-1-2.32a3.51,3.51,0,0,0-.8-1.14A1.06,1.06,0,0,0,10,10.91,3.63,3.63,0,0,0,9,12a4.61,4.61,0,0,0-.66,1.4,3.45,3.45,0,0,0,.58,2.89C9.7,17.33,10.5,18.37,11.29,19.43Zm9.05,4.32a5.14,5.14,0,0,1,3.86,0,.45.45,0,0,1,.24.59.45.45,0,0,1-.6.24,4.42,4.42,0,0,0-3.14,0,.39.39,0,0,1-.18,0,.47.47,0,0,1-.42-.27A.46.46,0,0,1,20.34,23.75Zm-6.54,0a5.14,5.14,0,0,1,3.86,0,.45.45,0,1,1-.36.83,4.42,4.42,0,0,0-3.14,0,.37.37,0,0,1-.18,0,.47.47,0,0,1-.42-.27A.46.46,0,0,1,13.8,23.75Z"/><path class="cls-1" d="M19,18.11a.64.64,0,0,0,.64-.64V8l2.52,2.53a.67.67,0,0,0,.91,0,.65.65,0,0,0,0-.91L19.45,6a.6.6,0,0,0-.21-.14.66.66,0,0,0-.48,0,.6.6,0,0,0-.21.14L14.93,9.59a.64.64,0,0,0,.91.91L18.36,8v9.5A.64.64,0,0,0,19,18.11Z"/><path class="cls-1" d="M30,2a6,6,0,0,1,6,6V30a6,6,0,0,1-6,6H8a6,6,0,0,1-6-6V8A6,6,0,0,1,8,2H30m0-2H8A8,8,0,0,0,0,8V30a8,8,0,0,0,8,8H30a8,8,0,0,0,8-8V8a8,8,0,0,0-8-8Z"/></g></g></g></g></svg>