<svg xmlns="http://www.w3.org/2000/svg" viewBox="0 0 38 38"><defs><style>.cls-1{fill:#eb5667;}</style></defs><title>Asset 8</title><g id="Layer_2" data-name="Layer 2"><g id="COMMAND_MENU" data-name="COMMAND MENU"><g id="Command_Icons_Default_" data-name="Command Icons (Default)"><path class="cls-1" d="M30,2a6,6,0,0,1,6,6V30a6,6,0,0,1-6,6H8a6,6,0,0,1-6-6V8A6,6,0,0,1,8,2H30m0-2H8A8,8,0,0,0,0,8V30a8,8,0,0,0,8,8H30a8,8,0,0,0,8-8V8a8,8,0,0,0-8-8Z"/><path class="cls-1" d="M21.18,22.71a4.65,4.65,0,0,0,1.32.2A4.19,4.19,0,0,0,26,21a.69.69,0,0,0-.2-1,.69.69,0,0,0-1,.2,2.87,2.87,0,0,1-3.29,1.11,2.67,2.67,0,0,1-2-2.58.7.7,0,1,0-1.4,0A4.07,4.07,0,0,0,21.18,22.71Z"/><path class="cls-1" d="M16.07,20.15a.71.71,0,0,0,.28.06A.7.7,0,0,0,17,19.8a4,4,0,0,0,.23-3.25,3,3,0,0,0-1.69-1.67,4.41,4.41,0,0,0-3.42,0,3.3,3.3,0,0,0-1.74,2,.7.7,0,1,0,1.32.46,1.91,1.91,0,0,1,1-1.14,3,3,0,0,1,2.32.06,1.62,1.62,0,0,1,.9.9,2.72,2.72,0,0,1-.2,2.14A.7.7,0,0,0,16.07,20.15Z"/><path class="cls-1" d="M20.74,17.29h.19c2.28-.07,3.91-1.25,4.37-3.14a.7.7,0,0,0-.51-.84.71.71,0,0,0-.85.51c-.44,1.8-2.28,2-3.06,2.07A2.18,2.18,0,0,1,18.45,14a3.56,3.56,0,0,0-2.4-2.51,6.23,6.23,0,0,0-4.29-.11.68.68,0,0,1-1-.23.76.76,0,0,0-.12-.19.7.7,0,0,0-.94-.13.8.8,0,0,0-.15,1,2.08,2.08,0,0,0,2.86.78,5.12,5.12,0,0,1,3.19.18,2.18,2.18,0,0,1,1.53,1.61l0,.11A3.46,3.46,0,0,0,20.74,17.29Z"/><path class="cls-1" d="M32.36,13.93a2.82,2.82,0,0,0-2-2,3.58,3.58,0,0,0-.51-2.37,8.37,8.37,0,0,0-5-3,4.06,4.06,0,0,0-1.94.13c-1.68-1.3-3.84-1.56-6.42-.78a7.23,7.23,0,0,0-2.59,1.7,4.36,4.36,0,0,0-2.31-.17,7.37,7.37,0,0,0-4.42,3.26,4.17,4.17,0,0,0-.51,1.91C4.78,14.91,5,16.75,5.52,17.9a6.42,6.42,0,0,0,5.26,3.3,3.25,3.25,0,0,0,1.43-.32,2.61,2.61,0,0,0,.18.78c.55,1.3,2.16,1.93,4.41,2.49,3.9,1,3.9,1.54,3.9,2.72a9.48,9.48,0,0,0,1.92,5,.69.69,0,0,0,.55.27A.71.71,0,0,0,23.73,31a8.16,8.16,0,0,1-1.63-4.17c0-2.12-.75-3.05-5-4.08-2.14-.53-3.18-1-3.45-1.68s.07-1.63,1-3.17c0,0,0-.05,0-.08a.5.5,0,0,0,.05-.13.53.53,0,0,0,0-.13.57.57,0,0,0,0-.13.5.5,0,0,0,0-.13l-.06-.12-.09-.1-.05-.07-.05,0s0,0,0,0l-.08,0-.13-.05h-.26l-.14,0-.11.06a.31.31,0,0,0-.11.09l-.07.05a6.34,6.34,0,0,0-.63,1c-.59,1-1,1.68-2.1,1.68a5.09,5.09,0,0,1-4-2.49,3,3,0,0,1,.31-2.89,4.43,4.43,0,0,0,.54.79.67.67,0,0,0,.53.25A.71.71,0,0,0,8.7,14.3a2.39,2.39,0,0,1-.29-2.92,6,6,0,0,1,3.47-2.54,3.12,3.12,0,0,1,1.86.24.7.7,0,0,0,.85-.15A6.48,6.48,0,0,1,16.9,7.28a5.79,5.79,0,0,1,4.7.24,4.32,4.32,0,0,0-1.18,2.17.69.69,0,0,0,.55.82.71.71,0,0,0,.82-.55,2.46,2.46,0,0,1,2.85-2,6.93,6.93,0,0,1,4.06,2.42,2.89,2.89,0,0,1,.17,2,.68.68,0,0,0,.16.65.75.75,0,0,0,.64.22c.15,0,.95-.09,1.37,1.11,0,0,1.27,3.68-.81,5.36A4.12,4.12,0,0,0,27.6,17.3c-3.2-1.15-4.8,1-5.49,1.92l-.17.22a.69.69,0,0,0,.12,1,.68.68,0,0,0,1-.11l.19-.26c.67-.89,1.67-2.24,3.9-1.43a2.73,2.73,0,0,1,1.77,3.69,3.79,3.79,0,0,1-4.7,2.59h-.1l-.11,0h0a.4.4,0,0,0-.15,0l-.12,0-.11.08-.1.08a.41.41,0,0,0-.07.11.54.54,0,0,0-.07.13s0,0,0,0,0,.06,0,.09,0,.07,0,.11c0,5.39,2.92,6.8,3,6.86a.66.66,0,0,0,.3.07.7.7,0,0,0,.29-1.34s-1.94-1-2.2-4.73a5.46,5.46,0,0,0,.57,0,5.35,5.35,0,0,0,4.94-3.72,4.71,4.71,0,0,0,.25-1.49C33.43,19.62,33.05,15.89,32.36,13.93Z"/><path class="cls-1" d="M18.37,8.22a.7.7,0,0,0-.8.58A5.65,5.65,0,0,0,18.9,13a2.38,2.38,0,0,0,1.93.85,3,3,0,0,0,2-1.24c.56-.63.9-1,1.65-.84a2.26,2.26,0,0,1,1.77,1,1.82,1.82,0,0,1-.11,1.67.69.69,0,0,0,.3.94.76.76,0,0,0,.32.08.71.71,0,0,0,.63-.38,3.19,3.19,0,0,0,.11-2.95,3.62,3.62,0,0,0-2.8-1.78,3,3,0,0,0-2.92,1.29c-.42.47-.68.74-1.08.77a1,1,0,0,1-.81-.41,4.29,4.29,0,0,1-1-3A.69.69,0,0,0,18.37,8.22Z"/></g></g></g></svg>