<svg xmlns="http://www.w3.org/2000/svg" viewBox="0 0 38 38"><defs><style>.cls-1{fill:#f6f6f6;}</style></defs><title>miro_graph</title><g id="Layer_2" data-name="Layer 2"><g id="MAIN_MENU_Drop_Out_" data-name="MAIN MENU (Drop Out)"><g id="MenuDropOutIcons"><g id="Graph_Icon" data-name="Graph Icon"><path class="cls-1" d="M20.79,29.62H17.21a2.41,2.41,0,0,1-2.41-2.41V23.63a2.42,2.42,0,0,1,2.41-2.42h3.58a2.42,2.42,0,0,1,2.41,2.42v3.58A2.41,2.41,0,0,1,20.79,29.62Zm-3.58-7.15a1.16,1.16,0,0,0-1.16,1.16v3.58a1.16,1.16,0,0,0,1.16,1.16h3.58A1.16,1.16,0,0,0,22,27.21V23.63a1.16,1.16,0,0,0-1.16-1.16Z"/><path class="cls-1" d="M22,7.1a.53.53,0,0,1,.53.53v5.94a.53.53,0,0,1-.53.53H16a.53.53,0,0,1-.53-.53V7.63A.53.53,0,0,1,16,7.1H22m0-1.26H16a1.8,1.8,0,0,0-1.79,1.79v5.94A1.8,1.8,0,0,0,16,15.36H22a1.8,1.8,0,0,0,1.79-1.79V7.63A1.8,1.8,0,0,0,22,5.84Z"/><path class="cls-1" d="M30.63,29.62H27.05a2.41,2.41,0,0,1-2.41-2.41V23.63a2.42,2.42,0,0,1,2.41-2.42h3.58a2.43,2.43,0,0,1,2.42,2.42v3.58A2.42,2.42,0,0,1,30.63,29.62Zm-3.58-7.15a1.16,1.16,0,0,0-1.16,1.16v3.58a1.16,1.16,0,0,0,1.16,1.16h3.58a1.16,1.16,0,0,0,1.16-1.16V23.63a1.16,1.16,0,0,0-1.16-1.16Z"/><path class="cls-1" d="M11,29.62H7.37A2.42,2.42,0,0,1,5,27.21V23.63a2.43,2.43,0,0,1,2.42-2.42H11a2.42,2.42,0,0,1,2.41,2.42v3.58A2.41,2.41,0,0,1,11,29.62ZM7.37,22.47a1.16,1.16,0,0,0-1.16,1.16v3.58a1.16,1.16,0,0,0,1.16,1.16H11a1.16,1.16,0,0,0,1.16-1.16V23.63A1.16,1.16,0,0,0,11,22.47Z"/><path class="cls-1" d="M19,20.84a.63.63,0,0,1-.63-.63V16.37a.63.63,0,1,1,1.26,0v3.84A.63.63,0,0,1,19,20.84Z"/><path class="cls-1" d="M9.16,20.84a.63.63,0,0,1-.63-.63V19.3a1.56,1.56,0,0,1,1.55-1.55H16a.3.3,0,0,0,.3-.3V16.37a.63.63,0,1,1,1.25,0v1.08A1.55,1.55,0,0,1,16,19H10.08a.3.3,0,0,0-.29.3v.91A.63.63,0,0,1,9.16,20.84Z"/><path class="cls-1" d="M28.84,20.84a.63.63,0,0,1-.63-.63V19.3a.3.3,0,0,0-.29-.3H22a1.55,1.55,0,0,1-1.55-1.55V16.37a.63.63,0,1,1,1.25,0v1.08a.3.3,0,0,0,.3.3h5.91a1.56,1.56,0,0,1,1.55,1.55v.91A.63.63,0,0,1,28.84,20.84Z"/><path class="cls-1" d="M30,2a6,6,0,0,1,6,6V30a6,6,0,0,1-6,6H8a6,6,0,0,1-6-6V8A6,6,0,0,1,8,2H30m0-2H8A8,8,0,0,0,0,8V30a8,8,0,0,0,8,8H30a8,8,0,0,0,8-8V8a8,8,0,0,0-8-8Z"/></g></g></g></g></svg>