<svg xmlns="http://www.w3.org/2000/svg" viewBox="0 0 38 38"><defs><style>.cls-1{fill:#5392ce;}</style></defs><title>miro_loops</title><g id="Layer_2" data-name="Layer 2"><g id="COMMAND_MENU" data-name="COMMAND MENU"><g id="Command_Icons_Default_" data-name="Command Icons (Default)"><path class="cls-1" d="M21.29,25.43a.7.7,0,0,0-1,0,.69.69,0,0,0,0,1l1.11,1.15h-9a2,2,0,0,1-2.06-1.81.7.7,0,0,0-1.4,0A3.34,3.34,0,0,0,12.36,29h9l-1.11,1.14a.7.7,0,0,0,0,1,.65.65,0,0,0,.48.2.73.73,0,0,0,.51-.21l2.25-2.33a.71.71,0,0,0,0-1Z"/><path class="cls-1" d="M9.6,14.33a.89.89,0,1,0,.88.89A.89.89,0,0,0,9.6,14.33Z"/><path class="cls-1" d="M9.6,24.27a.89.89,0,1,0-.89-.89A.88.88,0,0,0,9.6,24.27Z"/><path class="cls-1" d="M9.6,19.73a.89.89,0,1,0,.88.88A.88.88,0,0,0,9.6,19.73Z"/><circle class="cls-1" cx="9.6" cy="17.85" r="0.89"/><path class="cls-1" d="M13.74,9.6A4.14,4.14,0,1,0,9.6,13.74,4.15,4.15,0,0,0,13.74,9.6Zm-6.88,0A2.74,2.74,0,1,1,9.6,12.34,2.74,2.74,0,0,1,6.86,9.6Z"/><path class="cls-1" d="M28.4,24.26a4.14,4.14,0,1,0,4.14,4.14A4.15,4.15,0,0,0,28.4,24.26Z"/><path class="cls-1" d="M17,12.24a.66.66,0,0,0,.5.22.71.71,0,0,0,.49-.2.71.71,0,0,0,0-1l-1.1-1.14h9A1.94,1.94,0,0,1,28,11.94a.7.7,0,0,0,1.4,0A3.34,3.34,0,0,0,26,8.73h-9L18,7.58a.71.71,0,0,0,0-1,.7.7,0,0,0-1,0L14.78,8.94a.7.7,0,0,0,0,1Z"/><path class="cls-1" d="M28.72,21.57a.89.89,0,1,0,.89.89A.88.88,0,0,0,28.72,21.57Z"/><path class="cls-1" d="M28.72,13.41a.89.89,0,1,0,.89.89A.88.88,0,0,0,28.72,13.41Z"/><path class="cls-1" d="M28.72,16.17a.89.89,0,1,0,.89.89A.88.88,0,0,0,28.72,16.17Z"/><path class="cls-1" d="M28.72,18.94a.89.89,0,1,0,.89.89A.88.88,0,0,0,28.72,18.94Z"/><path class="cls-1" d="M30,2a6,6,0,0,1,6,6V30a6,6,0,0,1-6,6H8a6,6,0,0,1-6-6V8A6,6,0,0,1,8,2H30m0-2H8A8,8,0,0,0,0,8V30a8,8,0,0,0,8,8H30a8,8,0,0,0,8-8V8a8,8,0,0,0-8-8Z"/></g></g></g></svg>