<svg xmlns="http://www.w3.org/2000/svg" viewBox="0 0 42.35 42.35"><defs><style>.cls-1{fill:#ededed;}.cls-2{fill:#2a2d2f;}</style></defs><title>Asset 8</title><g id="Layer_2" data-name="Layer 2"><g id="GAZEBO_WINDOW" data-name="GAZEBO WINDOW"><g id="Gazebo_Icons" data-name="Gazebo Icons"><g id="Launch_Icon" data-name="Launch Icon"><rect class="cls-1" width="42.35" height="42.35" rx="8"/><path class="cls-2" d="M34.12,7a9.23,9.23,0,0,0-8.81,2.84l-5.46,5.56c-.72-.34-2.22-.87-3.21.11l-4.33,4.33-3.46.76a.58.58,0,0,0-.28,1L11,24A20.47,20.47,0,0,0,7.9,33.44a.54.54,0,0,0,.17.43.56.56,0,0,0,.4.17h0a20.38,20.38,0,0,0,9.39-3.3l2.47,2.43a.61.61,0,0,0,.4.16l.17,0a.56.56,0,0,0,.4-.44l.73-3.63,4.15-4.16c1-1,.43-2.56.09-3.26l5.5-5.59a9.27,9.27,0,0,0,2.7-8.86A.57.57,0,0,0,34.12,7ZM17.46,16.31c.35-.36,1-.24,1.52,0L16.5,18.79a.7.7,0,0,1-.36.19l-1.74.39ZM15.82,28.69a9.78,9.78,0,0,1-3.72,1.08,9.62,9.62,0,0,1,1-3.74ZM9.11,32.81a19.51,19.51,0,0,1,2.76-8l.4.39a10.87,10.87,0,0,0-1.34,5.2.57.57,0,0,0,.57.56h0a10.79,10.79,0,0,0,5.15-1.43l.4.39A19.61,19.61,0,0,1,9.11,32.81Zm16.3-8.55-2.93,2.93.33-1.65a.7.7,0,0,1,.19-.36l2.44-2.48C25.63,23.2,25.79,23.88,25.41,24.26ZM31,15.41l-8.81,9a1.9,1.9,0,0,0-.49.94L21,28.66l-.05.05,0,0-.58,2.85L10.13,21.48l6.26-1.37a1.92,1.92,0,0,0,.93-.52l8.81-9A8.27,8.27,0,0,1,33.48,8,8.23,8.23,0,0,1,31,15.41Z"/><path class="cls-2" d="M27.61,11.14a2.74,2.74,0,0,0-2,.84,2.79,2.79,0,0,0-.81,2,2.76,2.76,0,0,0,.84,2,2.81,2.81,0,0,0,2,.81h0a2.81,2.81,0,0,0,2-.85,2.75,2.75,0,0,0,.81-2,2.82,2.82,0,0,0-.84-2A2.71,2.71,0,0,0,27.61,11.14Zm1.22,4a1.67,1.67,0,0,1-1.18.5h0A1.67,1.67,0,0,1,26,14a1.59,1.59,0,0,1,.48-1.18,1.63,1.63,0,0,1,1.17-.5h0a1.67,1.67,0,0,1,1.19,2.84Z"/></g></g></g></g></svg>