<svg xmlns="http://www.w3.org/2000/svg" viewBox="0 0 38 38"><defs><style>.cls-1{fill:#964e62;}</style></defs><title>miro_sensors</title><g id="Layer_2" data-name="Layer 2"><g id="COMMAND_MENU" data-name="COMMAND MENU"><g id="Command_Icons_Default_" data-name="Command Icons (Default)"><path class="cls-1" d="M11.65,14.31a5.21,5.21,0,1,1-5.2,5.2,5.2,5.2,0,0,1,5.2-5.2m0-2.4a7.61,7.61,0,1,0,7.61,7.6,7.6,7.6,0,0,0-7.61-7.6Z"/><path class="cls-1" d="M33,27.17a1,1,0,0,1-.71-.29,10.5,10.5,0,0,1-.1-14.74,1,1,0,0,1,1.44,1.39,8.49,8.49,0,0,0,.08,11.93,1,1,0,0,1,0,1.42A1,1,0,0,1,33,27.17Z"/><path class="cls-1" d="M30.19,29.93a1,1,0,0,1-.71-.29,14.42,14.42,0,0,1-.13-20.23,1,1,0,1,1,1.43,1.4,12.4,12.4,0,0,0,.12,17.41,1,1,0,0,1,0,1.42A1,1,0,0,1,30.19,29.93Z"/><path class="cls-1" d="M27.42,32.6a1,1,0,0,1-.71-.29,18.25,18.25,0,0,1-.12-25.58A1,1,0,0,1,28,8.12a16.26,16.26,0,0,0,.11,22.78,1,1,0,0,1,0,1.41A1,1,0,0,1,27.42,32.6Z"/><path class="cls-1" d="M30,2a6,6,0,0,1,6,6V30a6,6,0,0,1-6,6H8a6,6,0,0,1-6-6V8A6,6,0,0,1,8,2H30m0-2H8A8,8,0,0,0,0,8V30a8,8,0,0,0,8,8H30a8,8,0,0,0,8-8V8a8,8,0,0,0-8-8Z"/></g></g></g></svg>