<svg xmlns="http://www.w3.org/2000/svg" viewBox="0 0 90.82 26.39"><defs><style>.cls-1{fill:none;}.cls-2{fill:#f1f1f1;}</style></defs><title>Asset 3</title><g id="Layer_2" data-name="Layer 2"><g id="MAIN_MENU" data-name="MAIN MENU"><g id="Menu_Objects" data-name="Menu Objects"><g id="Miro_Logo" data-name="Miro Logo"><path class="cls-1" d="M41.28,5.14H39.69v7.09h1.59a3.38,3.38,0,0,0,3.44-3.46A3.54,3.54,0,0,0,41.28,5.14Z"/><path class="cls-1" d="M63.43,18V15.64a3.48,3.48,0,1,0-7,0V18a3.48,3.48,0,1,0,7,0Z"/><path class="cls-2" d="M68,18V15.64a8,8,0,1,0-16.08,0V18A8,8,0,1,0,68,18ZM56.48,18V15.64a3.48,3.48,0,1,1,7,0V18a3.48,3.48,0,1,1-7,0Z"/><path class="cls-2" d="M74.08,17a2.33,2.33,0,0,0,2.32-2.34,2.39,2.39,0,0,0-2.32-2.39H71.82a2.32,2.32,0,0,0-2.25,2.39A2.27,2.27,0,0,0,71.82,17Z"/><path class="cls-2" d="M21.73,26.39A2.28,2.28,0,0,0,24,24.05V7.72a7.73,7.73,0,0,0-2.1-5.58,6.8,6.8,0,0,0-5-2.14A7,7,0,0,0,12,2,7.14,7.14,0,0,0,7.11,0C3.06,0,0,3.32,0,7.72V24.05a2.3,2.3,0,0,0,2.26,2.34,2.36,2.36,0,0,0,2.31-2.34V7.72c0-1.87.95-3,2.54-3s2.6,1.15,2.6,3V22.78A2.33,2.33,0,0,0,12,25.11a2.3,2.3,0,0,0,2.26-2.33V7.72c0-1.84,1-3,2.6-3,1.23,0,2.54.79,2.54,3V24.05A2.33,2.33,0,0,0,21.73,26.39Z"/><path class="cls-2" d="M84.84,8.59h3.67a2.32,2.32,0,0,0,2.31-2.33,2.36,2.36,0,0,0-2.31-2.4H84.84c-3.19,0-6.6,2.2-6.6,8.37V18c.17,5.38,2.51,8.35,6.6,8.35h3.67a2.33,2.33,0,0,0,2.31-2.34,2.36,2.36,0,0,0-2.31-2.4H84.84c-1.22,0-2-.61-2-3.63V17h4.55a2.3,2.3,0,0,0,2.26-2.34,2.37,2.37,0,0,0-2.26-2.39H82.8C82.8,9,83.83,8.59,84.84,8.59Z"/><path class="cls-2" d="M29.53.4a2.33,2.33,0,0,0-2.28,2.37,2.36,2.36,0,0,0,2.34,2.37,2.33,2.33,0,0,0,2.28-2.37A2.36,2.36,0,0,0,29.53.4Z"/><path class="cls-2" d="M29.53,7.28a2.31,2.31,0,0,0-2.26,2.34V24a2.29,2.29,0,1,0,4.57,0V9.62A2.33,2.33,0,0,0,29.53,7.28Z"/><path class="cls-2" d="M41.28.4H37.44a2.24,2.24,0,0,0-1.62.73,2.37,2.37,0,0,0-.69,1.67V24.05a2.32,2.32,0,0,0,2.31,2.34,2.27,2.27,0,0,0,2.25-2.34V17h1.56A4.59,4.59,0,0,1,44,18a3.25,3.25,0,0,1,1.09,2.57v3.46a2.33,2.33,0,0,0,2.31,2.34,2.27,2.27,0,0,0,2.25-2.34V20.6a8,8,0,0,0-2.61-6.13l0,0a8.07,8.07,0,0,0,2.24-5.68A8.21,8.21,0,0,0,41.28.4Zm0,11.83H39.69V5.14h1.59a3.54,3.54,0,0,1,3.44,3.63A3.38,3.38,0,0,1,41.28,12.23Z"/></g></g></g></g></svg>