<svg xmlns="http://www.w3.org/2000/svg" viewBox="0 0 38 38"><defs><style>.cls-1{fill:#7fb5e3;}</style></defs><title>miro_control</title><g id="Layer_2" data-name="Layer 2"><g id="COMMAND_MENU" data-name="COMMAND MENU"><g id="Command_Icons_Default_" data-name="Command Icons (Default)"><path class="cls-1" d="M31,10.52a1.15,1.15,0,0,0,.33.21.94.94,0,0,0,.76,0,1.15,1.15,0,0,0,.33-.21,1,1,0,0,0,0-1.42,1,1,0,0,0-1.09-.22A1.46,1.46,0,0,0,31,9.1l-.12.15a1.08,1.08,0,0,0-.15.36,1.36,1.36,0,0,0,0,.2,1,1,0,0,0,.08.38A1.15,1.15,0,0,0,31,10.52Z"/><path class="cls-1" d="M6.32,10.81H21.24a1,1,0,0,0,0-2H6.32a1,1,0,0,0,0,2Z"/><path class="cls-1" d="M26.46,13.49a3.68,3.68,0,1,0-3.68-3.68A3.68,3.68,0,0,0,26.46,13.49Zm0-6a2.28,2.28,0,1,1-2.28,2.28A2.28,2.28,0,0,1,26.46,7.53Z"/><path class="cls-1" d="M32.39,27.48l-.15-.13-.18-.09-.18-.06a1,1,0,0,0-1.2,1,1,1,0,0,0,.29.7,1,1,0,0,0,.71.3,1,1,0,0,0,.38-.08,1,1,0,0,0,.33-.22,1,1,0,0,0,.29-.7,1.09,1.09,0,0,0-.08-.39A1,1,0,0,0,32.39,27.48Z"/><path class="cls-1" d="M21.24,27.19H6.32a1,1,0,0,0,0,2H21.24a1,1,0,0,0,0-2Z"/><path class="cls-1" d="M26.46,24.51a3.68,3.68,0,1,0,3.68,3.68A3.68,3.68,0,0,0,26.46,24.51Zm0,6a2.28,2.28,0,1,1,2.28-2.28A2.28,2.28,0,0,1,26.46,30.47Z"/><path class="cls-1" d="M5.61,19.7a1,1,0,0,0,.71.3,1,1,0,0,0,.92-1.38A.93.93,0,0,0,7,18.29a.79.79,0,0,0-.15-.12l-.18-.1L6.52,18a1,1,0,0,0-.91.27,1.05,1.05,0,0,0-.29.71,1,1,0,0,0,.07.38A1,1,0,0,0,5.61,19.7Z"/><path class="cls-1" d="M31.68,18H16.76a1,1,0,0,0,0,2H31.68a1,1,0,0,0,0-2Z"/><path class="cls-1" d="M7.86,19a3.68,3.68,0,1,0,3.68-3.68A3.68,3.68,0,0,0,7.86,19Zm6,0a2.28,2.28,0,1,1-2.28-2.28A2.28,2.28,0,0,1,13.82,19Z"/><path class="cls-1" d="M30,2a6,6,0,0,1,6,6V30a6,6,0,0,1-6,6H8a6,6,0,0,1-6-6V8A6,6,0,0,1,8,2H30m0-2H8A8,8,0,0,0,0,8V30a8,8,0,0,0,8,8H30a8,8,0,0,0,8-8V8a8,8,0,0,0-8-8Z"/></g></g></g></svg>