<svg xmlns="http://www.w3.org/2000/svg" viewBox="0 0 38 38"><defs><style>.cls-1{fill:#d570aa;}</style></defs><title>miro_variables</title><g id="Layer_2" data-name="Layer 2"><g id="COMMAND_MENU" data-name="COMMAND MENU"><g id="Command_Icons_Default_" data-name="Command Icons (Default)"><path class="cls-1" d="M32.61,22c0-.09,0-.19-.08-.28a2.15,2.15,0,0,0-.14-.26,1,1,0,0,0-.19-.22A1,1,0,0,0,32,21a1.65,1.65,0,0,0-.26-.14,1.52,1.52,0,0,0-.28-.09,1.94,1.94,0,0,0-.59,0,1.61,1.61,0,0,0-.54.23,1,1,0,0,0-.23.19,1,1,0,0,0-.18.22,1.3,1.3,0,0,0-.14.26,1.41,1.41,0,0,0-.12.58,1.42,1.42,0,0,0,.12.57,1.54,1.54,0,0,0,.32.49,1.52,1.52,0,0,0,1.06.44,1.43,1.43,0,0,0,.58-.12,1.39,1.39,0,0,0,.48-.32,1.76,1.76,0,0,0,.33-.49,1.6,1.6,0,0,0,.11-.57A1.53,1.53,0,0,0,32.61,22Z"/><path class="cls-1" d="M20.91,9.18a1.44,1.44,0,0,0,.57.11,1.51,1.51,0,0,0,1.39-.92,1.5,1.5,0,1,0-2,.81Z"/><path class="cls-1" d="M25.5,10.13a1.49,1.49,0,0,0,0,2.12,1.5,1.5,0,1,0,2.12-2.12A1.49,1.49,0,0,0,25.5,10.13Z"/><path class="cls-1" d="M30.53,17.65a1.5,1.5,0,0,0-1.15-2.77,1.49,1.49,0,0,0-.81,2h0a1.5,1.5,0,0,0,1.38.93A1.66,1.66,0,0,0,30.53,17.65Z"/><path class="cls-1" d="M14.92,8a1.56,1.56,0,0,0,.57.11A1.66,1.66,0,0,0,16.07,8a1.58,1.58,0,0,0,.48-.33A1.46,1.46,0,0,0,17,6.6a1.52,1.52,0,0,0-.44-1.06,1,1,0,0,0-.23-.18.94.94,0,0,0-.26-.14,1.31,1.31,0,0,0-.28-.09A1.5,1.5,0,0,0,14.92,8Z"/><path class="cls-1" d="M22.39,14.86v0l0,0a10.11,10.11,0,1,0,3.28,7.44A10.07,10.07,0,0,0,22.35,14.82Zm-6.9,15.53a8.13,8.13,0,0,1,0-16.26,8,8,0,0,1,4.75,1.54l-5.48,5.91A1,1,0,0,0,14.81,23a1,1,0,0,0,1.42,0L21.71,17a8.12,8.12,0,0,1-6.22,13.36Z"/><path class="cls-1" d="M30,2a6,6,0,0,1,6,6V30a6,6,0,0,1-6,6H8a6,6,0,0,1-6-6V8A6,6,0,0,1,8,2H30m0-2H8A8,8,0,0,0,0,8V30a8,8,0,0,0,8,8H30a8,8,0,0,0,8-8V8a8,8,0,0,0-8-8Z"/></g></g></g></svg>