<svg xmlns="http://www.w3.org/2000/svg" viewBox="0 0 38 38"><defs><style>.cls-1{fill:#d23a4f;}</style></defs><title>miro_functions</title><g id="Layer_2" data-name="Layer 2"><g id="COMMAND_MENU" data-name="COMMAND MENU"><g id="Command_Icons_Default_" data-name="Command Icons (Default)"><path class="cls-1" d="M21.29,25.47a.69.69,0,0,0-1,0,.7.7,0,0,0,0,1l1.12,1.16H12.32a2,2,0,0,1-2.07-1.83.7.7,0,0,0-1.4,0A3.36,3.36,0,0,0,12.32,29h9.09l-1.12,1.16a.7.7,0,1,0,1,1l2.27-2.34a.71.71,0,0,0,0-1Z"/><path class="cls-1" d="M9.55,14.31a.89.89,0,1,0,.89.89A.89.89,0,0,0,9.55,14.31Z"/><path class="cls-1" d="M9.55,24.3a.9.9,0,1,0-.9-.9A.89.89,0,0,0,9.55,24.3Z"/><path class="cls-1" d="M9.55,19.73a.89.89,0,1,0,.89.89A.89.89,0,0,0,9.55,19.73Z"/><path class="cls-1" d="M9.55,17a.89.89,0,1,0,.89.89A.89.89,0,0,0,9.55,17Z"/><path class="cls-1" d="M13.7,9.55A4.16,4.16,0,1,0,9.55,13.7,4.15,4.15,0,0,0,13.7,9.55Zm-6.91,0A2.76,2.76,0,1,1,9.55,12.3,2.75,2.75,0,0,1,6.79,9.55Z"/><circle class="cls-1" cx="28.45" cy="28.45" r="4.16"/><path class="cls-1" d="M30,2a6,6,0,0,1,6,6V30a6,6,0,0,1-6,6H8a6,6,0,0,1-6-6V8A6,6,0,0,1,8,2H30m0-2H8A8,8,0,0,0,0,8V30a8,8,0,0,0,8,8H30a8,8,0,0,0,8-8V8a8,8,0,0,0-8-8Z"/></g></g></g></svg>