<svg xmlns="http://www.w3.org/2000/svg" viewBox="0 0 38 38"><defs><style>.cls-1{fill:#f6f6f6;}</style></defs><title>miro_clear</title><g id="Layer_2" data-name="Layer 2"><g id="MAIN_MENU_Drop_Out_" data-name="MAIN MENU (Drop Out)"><g id="MenuDropOutIcons"><g id="Clear_Blocks_Icon" data-name="Clear Blocks Icon"><path class="cls-1" d="M12.48,20.4a.4.4,0,0,0-.55.16l-.6,1.08L10,18.52l-.87,3.07L6.7,18,5.23,21.93a.4.4,0,0,0,.24.52A.41.41,0,0,0,6,22.22l.91-2.44L9.38,23.5l.74-2.6,1.12,2.55L12.63,21A.41.41,0,0,0,12.48,20.4Z"/><path class="cls-1" d="M32.77,21.93,31.3,18l-2.38,3.57-.87-3.07-1.38,3.12-.6-1.08a.4.4,0,0,0-.55-.16.42.42,0,0,0-.16.55l1.4,2.5,1.12-2.55.74,2.6,2.48-3.72L32,22.22a.41.41,0,0,0,.52.23A.4.4,0,0,0,32.77,21.93Z"/><path class="cls-1" d="M24.66,20.81c-.14-.48-.26-1-.38-1.46a1.23,1.23,0,0,1,.25-1c.44-.58.88-1.15,1.31-1.73.7-.93,1.41-1.85,2.08-2.81a3,3,0,0,0,.52-2.55A4.35,4.35,0,0,0,27.85,10,3.22,3.22,0,0,0,27,9a1,1,0,0,0-1.28.07,3.09,3.09,0,0,0-.71,1c-.32.68-.63,1.37-.92,2.06-.49,1.14-.94,2.29-1.53,3.37-.11.21-.24.4-.36.6a1.35,1.35,0,0,1-1.19.68H17a1.35,1.35,0,0,1-1.19-.68c-.12-.2-.25-.39-.36-.6a36.56,36.56,0,0,1-1.53-3.37c-.29-.69-.6-1.38-.92-2.06a3.09,3.09,0,0,0-.71-1A1,1,0,0,0,11,9a3.22,3.22,0,0,0-.82.94,4.35,4.35,0,0,0-.59,1.25,3,3,0,0,0,.52,2.55c.67,1,1.38,1.88,2.08,2.81.43.58.87,1.15,1.31,1.73a1.23,1.23,0,0,1,.25,1c-.12.49-.24,1-.38,1.46a4.74,4.74,0,0,0-.18.72,14.55,14.55,0,0,0-.07,1.87,5,5,0,0,0,.46,1.73,4.61,4.61,0,0,0,2.39,2.54,7.3,7.3,0,0,0,2.88.58h.36a7.37,7.37,0,0,0,2.88-.58,4.61,4.61,0,0,0,2.39-2.54,5,5,0,0,0,.46-1.73,14.55,14.55,0,0,0-.07-1.87A4.74,4.74,0,0,0,24.66,20.81Zm-6.61.55a.35.35,0,0,1,.17.23.28.28,0,0,1-.06.23.29.29,0,0,1-.25.13.4.4,0,0,1-.22-.07l-1-.64-.18-.11h-.13l-.24.15-.94.6A.4.4,0,0,1,15,22a.29.29,0,0,1-.25-.13.28.28,0,0,1-.06-.23.35.35,0,0,1,.17-.23l.74-.48.21-.12-.23-.1-.48-.16-.19-.06a.29.29,0,0,1-.23-.36.31.31,0,0,1,.32-.25l.13,0a6.34,6.34,0,0,1,1.33.53,6.47,6.47,0,0,1,1.35-.53l.12,0h0a.32.32,0,0,1,.29.25.3.3,0,0,1-.23.36l-.19.06-.48.16-.23.09Zm5.32,0a.38.38,0,0,1,.17.23.28.28,0,0,1-.06.23.29.29,0,0,1-.25.13.4.4,0,0,1-.22-.07l-1-.64-.18-.11H21.7l-.24.15-.94.6a.4.4,0,0,1-.22.07.29.29,0,0,1-.25-.13.28.28,0,0,1-.06-.23.32.32,0,0,1,.17-.23l.74-.48.21-.12-.24-.1-.47-.16-.19-.06a.29.29,0,0,1-.23-.36.31.31,0,0,1,.32-.25l.13,0a6.34,6.34,0,0,1,1.33.53,6.4,6.4,0,0,1,1.34-.53l.13,0h0a.32.32,0,0,1,.29.25.3.3,0,0,1-.23.36l-.2.06-.47.16-.23.09Z"/><path class="cls-1" d="M30,2a6,6,0,0,1,6,6V30a6,6,0,0,1-6,6H8a6,6,0,0,1-6-6V8A6,6,0,0,1,8,2H30m0-2H8A8,8,0,0,0,0,8V30a8,8,0,0,0,8,8H30a8,8,0,0,0,8-8V8a8,8,0,0,0-8-8Z"/></g></g></g></g></svg>