<?xml version="1.0" encoding="utf-8"?>
<!-- Generator: Adobe Illustrator 23.0.0, SVG Export Plug-In . SVG Version: 6.00 Build 0)  -->
<svg version="1.1" id="Layer_1" xmlns="http://www.w3.org/2000/svg" xmlns:xlink="http://www.w3.org/1999/xlink" x="0px" y="0px"
	 viewBox="0 0 38 38" style="enable-background:new 0 0 38 38;" xml:space="preserve">
<style type="text/css">
	.st0{fill:#F6F6F6;}
	.st1{fill:#FFFFFF;}
</style>
<path class="st0" d="M29.7,7.9h-3.2c-0.6,0-1.2,0.5-1.2,1.2v4.4c0,0.7-0.6,1.3-1.3,1.3H13.8c-0.7,0-1.2-0.6-1.2-1.2V9.2
	c0-0.7-0.6-1.3-1.3-1.3H8.4c-0.7,0-1.3,0.6-1.3,1.3v13.4c0,0.8,0.3,1.6,0.9,2.1l5.3,5.2c0.7,0.7,1.8,1.1,2.8,1.1h13.6
	c0.7,0,1.2-0.5,1.2-1.2V9.2C31,8.5,30.4,7.9,29.7,7.9z"/>
<path class="st0" d="M22.2,13.1h-1.4c-0.6,0-1.1-0.5-1.1-1.1V9c0-0.6,0.5-1.1,1.1-1.1h1.4c0.6,0,1.1,0.5,1.1,1.1v3
	C23.3,12.6,22.8,13.1,22.2,13.1z"/>
<g id="MenuDropOutIcons">
	<g id="Save_Icon">
		<path class="st1" d="M15,21.4c0.3,0.4,0.6,0.8,0.9,1.2c0.2,0.2,0.2,0.5,0.2,0.7c-0.1,0.3-0.2,0.7-0.3,1c-0.1,0.2-0.1,0.3-0.1,0.5
			c0,0.4-0.1,0.8,0,1.3c0,0.4,0.1,0.8,0.3,1.2c0.3,0.8,0.9,1.4,1.6,1.7c0.6,0.3,1.3,0.4,1.9,0.4h0.2c0.7,0,1.3-0.1,1.9-0.4
			c0.7-0.3,1.3-1,1.6-1.7c0.2-0.4,0.3-0.8,0.3-1.2c0-0.4,0-0.8,0-1.3c0-0.2-0.1-0.3-0.1-0.5c-0.1-0.3-0.2-0.7-0.3-1
			c-0.1-0.2,0-0.5,0.2-0.7c0.3-0.4,0.6-0.8,0.9-1.2c0.5-0.6,0.9-1.3,1.4-1.9c0.4-0.5,0.5-1.2,0.3-1.8c-0.1-0.3-0.2-0.6-0.4-0.8
			c-0.1-0.2-0.3-0.4-0.6-0.6c-0.2-0.2-0.6-0.2-0.8,0c0,0,0,0,0,0c-0.2,0.2-0.4,0.4-0.5,0.7c-0.2,0.5-0.4,0.9-0.6,1.4
			c-0.3,0.8-0.6,1.6-1,2.3c-0.1,0.1-0.2,0.3-0.2,0.4c-0.2,0.3-0.5,0.5-0.8,0.5h-2.8c-0.3,0-0.6-0.2-0.8-0.5
			c-0.1-0.1-0.2-0.3-0.2-0.4c-0.4-0.7-0.7-1.5-1-2.3C16,18,15.8,17.5,15.6,17c-0.1-0.3-0.3-0.5-0.5-0.7c-0.2-0.3-0.6-0.3-0.8-0.1
			c0,0,0,0,0,0c-0.2,0.2-0.4,0.4-0.6,0.6c-0.2,0.3-0.3,0.5-0.4,0.8c-0.2,0.6,0,1.3,0.3,1.8C14.1,20.2,14.6,20.8,15,21.4z M20.4,24
			c0.7-0.3,1.6-0.3,2.3,0c0.1,0.1,0.2,0.2,0.1,0.4c0,0,0,0,0,0c-0.1,0.1-0.2,0.2-0.4,0.1c-0.6-0.2-1.3-0.2-1.9,0c0,0-0.1,0-0.1,0
			c-0.1,0-0.2,0-0.2-0.1C20.2,24.3,20.2,24.1,20.4,24C20.4,24,20.4,24,20.4,24z M16.5,24c0.7-0.3,1.6-0.3,2.3,0
			c0.1,0.1,0.2,0.2,0.1,0.3c0,0,0,0,0,0c-0.1,0.1-0.2,0.2-0.4,0.1c-0.6-0.2-1.3-0.2-1.9,0c0,0-0.1,0-0.1,0c-0.1,0-0.2-0.1-0.3-0.2
			C16.3,24.2,16.4,24.1,16.5,24z"/>
		<path class="st0" d="M30,2c3.3,0,6,2.7,6,6v22c0,3.3-2.7,6-6,6H8c-3.3,0-6-2.7-6-6V8c0-3.3,2.7-6,6-6H30 M30,0H8C3.6,0,0,3.6,0,8
			v22c0,4.4,3.6,8,8,8h22c4.4,0,8-3.6,8-8V8C38,3.6,34.4,0,30,0z"/>
	</g>
</g>
</svg>
