<svg xmlns="http://www.w3.org/2000/svg" viewBox="0 0 38 38" width="38" height="38">
	<style>
		tspan { white-space:pre }
		.shp0 { fill: #000000 } 
	</style>
	<g id="Layer_2">
		<g id="MAIN_MENU_Drop_Out_">
			<g id="MenuDropOutIcons">
				<g id="Save_Icon">
					<path id="Layer" class="shp0" d="M9,15.91c-0.15,-0.2 -0.29,-0.43 -0.39,-0.66c-0.1,-0.23 -0.18,-0.48 -0.23,-0.73c-0.05,-0.25 -0.07,-0.51 -0.06,-0.76c0.01,-0.26 0.04,-0.51 0.11,-0.76c0.03,-0.12 0.07,-0.25 0.12,-0.37c0.05,-0.12 0.1,-0.24 0.15,-0.36c0.06,-0.12 0.12,-0.23 0.18,-0.34c0.06,-0.11 0.13,-0.22 0.21,-0.33c0.06,-0.1 0.13,-0.19 0.19,-0.28c0.07,-0.09 0.14,-0.18 0.22,-0.26c0.08,-0.08 0.16,-0.16 0.24,-0.24c0.08,-0.08 0.17,-0.15 0.26,-0.22c0.1,-0.1 0.22,-0.17 0.35,-0.22c0.13,-0.05 0.27,-0.07 0.41,-0.07c0.14,0.01 0.27,0.04 0.4,0.1c0.12,0.06 0.23,0.15 0.32,0.25c0.09,0.08 0.17,0.16 0.24,0.25c0.08,0.09 0.15,0.18 0.21,0.27c0.07,0.09 0.13,0.19 0.18,0.3c0.06,0.1 0.11,0.21 0.15,0.31c0.32,0.76 0.67,1.54 1,2.31c0.54,1.28 1.05,2.57 1.71,3.79c0.13,0.23 0.27,0.44 0.41,0.67c0.07,0.12 0.15,0.22 0.24,0.32c0.09,0.09 0.2,0.18 0.32,0.24c0.12,0.07 0.24,0.12 0.37,0.15c0.13,0.03 0.26,0.05 0.4,0.04h4.61c0.13,0 0.27,-0.01 0.4,-0.04c0.13,-0.03 0.25,-0.08 0.37,-0.15c0.12,-0.07 0.22,-0.15 0.32,-0.24c0.09,-0.09 0.18,-0.2 0.24,-0.32c0.14,-0.23 0.28,-0.44 0.41,-0.67c0.71,-1.22 1.17,-2.51 1.71,-3.79c0.3,-0.77 0.65,-1.55 1,-2.31c0.05,-0.11 0.1,-0.21 0.15,-0.31c0.06,-0.1 0.12,-0.2 0.19,-0.29c0.07,-0.09 0.14,-0.19 0.22,-0.27c0.08,-0.09 0.16,-0.17 0.24,-0.25c0.09,-0.1 0.2,-0.18 0.32,-0.24c0.12,-0.06 0.25,-0.09 0.38,-0.1c0.13,-0.01 0.27,0.01 0.39,0.06c0.13,0.05 0.24,0.12 0.34,0.21c0.09,0.07 0.18,0.14 0.26,0.22c0.08,0.08 0.17,0.16 0.24,0.24c0.08,0.08 0.15,0.17 0.22,0.26c0.07,0.09 0.13,0.18 0.19,0.28c0.07,0.11 0.14,0.22 0.21,0.33c0.06,0.11 0.13,0.23 0.18,0.34c0.06,0.12 0.11,0.24 0.15,0.36c0.05,0.12 0.09,0.24 0.12,0.37c0.06,0.25 0.1,0.5 0.11,0.76c0.01,0.26 -0.01,0.51 -0.06,0.76c-0.05,0.25 -0.13,0.5 -0.23,0.73c-0.1,0.23 -0.24,0.45 -0.39,0.66c-0.75,1.07 -1.55,2.15 -2.33,3.15c-0.46,0.65 -0.98,1.29 -1.46,1.94c-0.07,0.08 -0.12,0.17 -0.17,0.26c-0.05,0.09 -0.08,0.19 -0.11,0.29c-0.02,0.1 -0.04,0.2 -0.04,0.31c0,0.1 0.01,0.21 0.03,0.31c0.12,0.55 0.26,1.1 0.42,1.64c0.02,0.07 0.04,0.13 0.06,0.2c0.02,0.07 0.04,0.13 0.05,0.2c0.02,0.07 0.03,0.13 0.05,0.2c0.01,0.07 0.03,0.13 0.04,0.2c0.02,0.17 0.03,0.35 0.04,0.52c0.01,0.17 0.02,0.35 0.03,0.52c0.01,0.18 0.01,0.35 0.01,0.53c0,0.18 0,0.35 0,0.53c-0.01,0.17 -0.03,0.33 -0.06,0.5c-0.03,0.17 -0.06,0.33 -0.11,0.49c-0.04,0.16 -0.09,0.32 -0.15,0.48c-0.06,0.16 -0.12,0.31 -0.2,0.47c-0.12,0.31 -0.27,0.61 -0.45,0.9c-0.18,0.28 -0.38,0.55 -0.61,0.79c-0.23,0.24 -0.48,0.46 -0.75,0.66c-0.27,0.19 -0.56,0.36 -0.87,0.5c-0.26,0.11 -0.52,0.2 -0.78,0.28c-0.26,0.08 -0.53,0.15 -0.8,0.2c-0.27,0.05 -0.54,0.1 -0.82,0.12c-0.27,0.03 -0.55,0.04 -0.83,0.04h-0.4c-0.28,0 -0.55,-0.02 -0.83,-0.04c-0.27,-0.03 -0.55,-0.07 -0.82,-0.12c-0.27,-0.05 -0.54,-0.12 -0.8,-0.2c-0.26,-0.08 -0.52,-0.17 -0.78,-0.28c-0.3,-0.14 -0.6,-0.31 -0.87,-0.5c-0.27,-0.19 -0.52,-0.42 -0.75,-0.66c-0.23,-0.24 -0.43,-0.51 -0.61,-0.79c-0.18,-0.28 -0.33,-0.58 -0.45,-0.9c-0.07,-0.15 -0.14,-0.31 -0.2,-0.47c-0.06,-0.16 -0.11,-0.32 -0.15,-0.48c-0.04,-0.16 -0.08,-0.33 -0.11,-0.49c-0.03,-0.17 -0.05,-0.33 -0.06,-0.5c0,-0.18 0,-0.35 0,-0.53c0,-0.18 0.01,-0.35 0.01,-0.53c0.01,-0.18 0.02,-0.35 0.03,-0.52c0.01,-0.17 0.03,-0.35 0.04,-0.52c0.01,-0.07 0.02,-0.14 0.04,-0.2c0.01,-0.07 0.03,-0.13 0.05,-0.2c0.02,-0.07 0.03,-0.13 0.05,-0.2c0.02,-0.07 0.04,-0.13 0.06,-0.2c0.16,-0.54 0.3,-1.09 0.42,-1.64c0.02,-0.1 0.03,-0.21 0.03,-0.31c0,-0.1 -0.01,-0.21 -0.04,-0.31c-0.02,-0.1 -0.06,-0.2 -0.11,-0.29c-0.05,-0.09 -0.1,-0.18 -0.17,-0.26c-0.46,-0.65 -0.98,-1.29 -1.46,-1.94c-0.78,-1.06 -1.58,-2.06 -2.33,-3.15zM20.17,23.46c-0.05,0.05 -0.08,0.1 -0.1,0.16c-0.02,0.06 -0.03,0.13 -0.02,0.19c0.01,0.06 0.03,0.13 0.06,0.18c0.02,0.03 0.05,0.06 0.08,0.09c0.03,0.03 0.06,0.05 0.1,0.06c0.04,0.02 0.07,0.03 0.11,0.03c0.04,0.01 0.08,0.01 0.12,0c0.01,0 0.03,0 0.04,0.01c0.02,0 0.03,0 0.05,0c0.02,0 0.03,0 0.05,0c0.02,0 0.03,0 0.04,-0.01c0.25,-0.1 0.5,-0.17 0.77,-0.22c0.26,-0.05 0.53,-0.07 0.79,-0.07c0.27,0 0.53,0.02 0.79,0.07c0.26,0.05 0.52,0.12 0.77,0.22c0.06,0.02 0.11,0.03 0.17,0.03c0.06,0 0.12,-0.01 0.17,-0.03c0.06,-0.02 0.11,-0.05 0.15,-0.1c0.04,-0.04 0.08,-0.09 0.1,-0.14c0.02,-0.05 0.04,-0.11 0.04,-0.17c0,-0.06 -0.01,-0.12 -0.03,-0.17c-0.02,-0.05 -0.06,-0.1 -0.1,-0.15c-0.04,-0.04 -0.09,-0.08 -0.15,-0.1c-0.3,-0.12 -0.62,-0.22 -0.94,-0.28c-0.32,-0.06 -0.65,-0.09 -0.98,-0.09c-0.33,0 -0.66,0.03 -0.98,0.09c-0.32,0.06 -0.64,0.16 -0.94,0.28c-0.06,0.02 -0.12,0.06 -0.16,0.1zM13.83,23.36c-0.05,0.02 -0.1,0.05 -0.14,0.09c-0.04,0.04 -0.07,0.09 -0.09,0.14c-0.02,0.05 -0.03,0.11 -0.04,0.16c0,0.06 0.01,0.11 0.03,0.16c0.02,0.04 0.04,0.08 0.07,0.11c0.03,0.03 0.06,0.06 0.1,0.09c0.04,0.02 0.08,0.04 0.12,0.05c0.04,0.01 0.09,0.02 0.13,0.02c0.01,0 0.03,0 0.04,0.01c0.02,0 0.03,0 0.05,0c0.02,0 0.03,0 0.05,0c0.02,0 0.03,0 0.04,-0.01c0.25,-0.1 0.5,-0.17 0.77,-0.22c0.26,-0.05 0.53,-0.07 0.79,-0.07c0.27,0 0.53,0.02 0.79,0.07c0.26,0.05 0.52,0.12 0.77,0.22c0.05,0.02 0.11,0.03 0.17,0.03c0.06,0 0.12,-0.01 0.17,-0.03c0.05,-0.02 0.1,-0.05 0.15,-0.1c0.04,-0.04 0.08,-0.09 0.1,-0.14c0.02,-0.05 0.04,-0.11 0.04,-0.17c0,-0.06 -0.01,-0.12 -0.03,-0.17c-0.02,-0.06 -0.05,-0.11 -0.1,-0.15c-0.04,-0.04 -0.09,-0.08 -0.15,-0.1c-0.3,-0.12 -0.62,-0.22 -0.94,-0.28c-0.32,-0.06 -0.65,-0.09 -0.98,-0.09c-0.33,0 -0.66,0.03 -0.98,0.09c-0.32,0.06 -0.64,0.16 -0.94,0.28z" />
					<path id="Layer" class="shp0" d="M18.55,17.56c0.01,0.02 0.03,0.03 0.05,0.04c0.02,0.01 0.03,0.03 0.05,0.04c0.02,0.01 0.04,0.02 0.05,0.03c0.02,0.01 0.04,0.02 0.06,0.03c0.04,0.02 0.08,0.03 0.12,0.04c0.04,0.01 0.08,0.01 0.12,0.01c0.04,0 0.08,0 0.12,-0.01c0.04,-0.01 0.08,-0.02 0.12,-0.04c0.02,-0.01 0.04,-0.02 0.06,-0.03c0.02,-0.01 0.04,-0.02 0.05,-0.03c0.02,-0.01 0.03,-0.02 0.05,-0.04c0.02,-0.01 0.03,-0.03 0.05,-0.04l3.55,-3.56c0.06,-0.06 0.11,-0.13 0.14,-0.21c0.03,-0.08 0.05,-0.16 0.05,-0.24c0,-0.08 -0.02,-0.17 -0.05,-0.24c-0.03,-0.08 -0.08,-0.15 -0.14,-0.21c-0.06,-0.06 -0.13,-0.11 -0.2,-0.14c-0.08,-0.03 -0.16,-0.05 -0.24,-0.05c-0.08,0 -0.17,0.02 -0.24,0.05c-0.08,0.03 -0.15,0.08 -0.2,0.14l-2.51,2.51v-9.47c0,-0.17 -0.07,-0.33 -0.19,-0.45c-0.12,-0.12 -0.28,-0.19 -0.45,-0.19c-0.17,0 -0.33,0.07 -0.45,0.19c-0.12,0.12 -0.19,0.28 -0.19,0.45v9.44l-2.51,-2.51c-0.06,-0.06 -0.13,-0.11 -0.2,-0.14c-0.08,-0.03 -0.16,-0.05 -0.24,-0.05c-0.08,0 -0.17,0.02 -0.24,0.05c-0.08,0.03 -0.15,0.08 -0.2,0.14c-0.06,0.06 -0.11,0.13 -0.14,0.21c-0.03,0.08 -0.05,0.16 -0.05,0.24c0,0.08 0.02,0.17 0.05,0.24c0.03,0.08 0.08,0.15 0.14,0.21z" />
				</g>
			</g>
		</g>
	</g>
</svg>
