<svg xmlns="http://www.w3.org/2000/svg" viewBox="0 0 38 38"><defs><style>.cls-1{fill:#4ab9af;}</style></defs><title>miro_motion</title><g id="Layer_2" data-name="Layer 2"><g id="COMMAND_MENU" data-name="COMMAND MENU"><g id="Command_Icons_Default_" data-name="Command Icons (Default)"><path class="cls-1" d="M34,18.15l-4.47-4.47a1.2,1.2,0,0,0-1.7,0,1.19,1.19,0,0,0,0,1.69l2.42,2.43H25.53a6.67,6.67,0,0,0-5.33-5.33V7.7l2.43,2.43a1.2,1.2,0,0,0,1.69,0,1.2,1.2,0,0,0,0-1.7L19.85,4a1.2,1.2,0,0,0-1.7,0L13.68,8.43a1.2,1.2,0,0,0,0,1.7,1.19,1.19,0,0,0,1.69,0L17.8,7.7v4.77a6.65,6.65,0,0,0-5.32,5.33H7.7l2.43-2.43a1.19,1.19,0,0,0,0-1.69,1.2,1.2,0,0,0-1.7,0L4,18.15a1.2,1.2,0,0,0,0,1.7l4.47,4.47a1.2,1.2,0,0,0,.85.35,1.16,1.16,0,0,0,.85-.35,1.19,1.19,0,0,0,0-1.69L7.7,20.2h4.78a6.65,6.65,0,0,0,5.32,5.33v4.76l-2.43-2.42a1.19,1.19,0,0,0-1.69,0,1.2,1.2,0,0,0,0,1.7L18.15,34a1.21,1.21,0,0,0,1.7,0l4.47-4.47a1.2,1.2,0,0,0,0-1.7,1.19,1.19,0,0,0-1.69,0L20.2,30.29V25.53a6.67,6.67,0,0,0,5.33-5.33h4.76l-2.42,2.43a1.19,1.19,0,0,0,0,1.69,1.16,1.16,0,0,0,.85.35,1.2,1.2,0,0,0,.85-.35L34,19.85A1.2,1.2,0,0,0,34,18.15ZM19,23.24A4.24,4.24,0,1,1,23.24,19,4.24,4.24,0,0,1,19,23.24Z"/><path class="cls-1" d="M30,2a6,6,0,0,1,6,6V30a6,6,0,0,1-6,6H8a6,6,0,0,1-6-6V8A6,6,0,0,1,8,2H30m0-2H8A8,8,0,0,0,0,8V30a8,8,0,0,0,8,8H30a8,8,0,0,0,8-8V8a8,8,0,0,0-8-8Z"/></g></g></g></svg>