<svg xmlns="http://www.w3.org/2000/svg" viewBox="0 0 38 38"><defs><style>.cls-1{fill:#4470b6;}</style></defs><title>miro_code</title><g id="Layer_2" data-name="Layer 2"><g id="COMMAND_MENU" data-name="COMMAND MENU"><g id="Command_Icons_Default_" data-name="Command Icons (Default)"><path class="cls-1" d="M14.46,10.68a1,1,0,0,0-1.41,0L5.69,18l0,0s0,0,0,0a1,1,0,0,0,0,1.42L13,26.88a1,1,0,0,0,1.42-1.41L7.74,18.82l6.72-6.72A1,1,0,0,0,14.46,10.68Z"/><path class="cls-1" d="M32.38,18,25,10.68a1,1,0,0,0-1.42,1.42l6.65,6.65-6.72,6.72a1,1,0,0,0,0,1.41,1,1,0,0,0,1.41,0l7.36-7.35,0-.05s0,0,0,0A1,1,0,0,0,32.38,18Z"/><path class="cls-1" d="M21.62,8.69a1,1,0,0,0-1.22.72L15.66,28.1a1,1,0,0,0,.72,1.21l.25,0a1,1,0,0,0,1-.75L22.34,9.9A1,1,0,0,0,21.62,8.69Z"/><path class="cls-1" d="M30,2a6,6,0,0,1,6,6V30a6,6,0,0,1-6,6H8a6,6,0,0,1-6-6V8A6,6,0,0,1,8,2H30m0-2H8A8,8,0,0,0,0,8V30a8,8,0,0,0,8,8H30a8,8,0,0,0,8-8V8a8,8,0,0,0-8-8Z"/></g></g></g></svg>