<svg xmlns="http://www.w3.org/2000/svg" viewBox="0 0 38 38"><defs><style>.cls-1{fill:#70a27e;}</style></defs><title>miro_setup</title><g id="Layer_2" data-name="Layer 2"><g id="COMMAND_MENU" data-name="COMMAND MENU"><g id="Command_Icons_Default_" data-name="Command Icons (Default)"><path class="cls-1" d="M25.36,5.14a8.45,8.45,0,0,0-7.17,13l-.12.07L4.68,30.25a1.5,1.5,0,0,0,1,2.61,1.51,1.51,0,0,0,1-.39L9.76,29.7l1.89,1.88a1.45,1.45,0,0,0,1.06.44,1.48,1.48,0,0,0,1.06-.44,1.51,1.51,0,0,0,0-2.12L12,27.68l2.72-2.45,1.83,1.82a1.49,1.49,0,0,0,1.06.44,1.5,1.5,0,0,0,1.06-2.56l-1.72-1.71,3.14-2.84s.05-.07.08-.11a8.46,8.46,0,1,0,5.2-15.13Zm0,13.92a5.46,5.46,0,1,1,5.46-5.46A5.47,5.47,0,0,1,25.36,19.06Z"/><path class="cls-1" d="M29.27,2A6.74,6.74,0,0,1,36,8.73V29.27A6.74,6.74,0,0,1,29.27,36H8.73A6.74,6.74,0,0,1,2,29.27V8.73A6.74,6.74,0,0,1,8.73,2H29.27m0-2H8.73A8.74,8.74,0,0,0,0,8.73V29.27A8.74,8.74,0,0,0,8.73,38H29.27A8.74,8.74,0,0,0,38,29.27V8.73A8.74,8.74,0,0,0,29.27,0Z"/></g></g></g></svg>