<svg xmlns="http://www.w3.org/2000/svg" viewBox="0 0 38 38"><defs><style>.cls-1{fill:#f6f6f6;}</style></defs><title>miro_save</title><g id="Layer_2" data-name="Layer 2"><g id="MAIN_MENU_Drop_Out_" data-name="MAIN MENU (Drop Out)"><g id="MenuDropOutIcons"><g id="Save_Icon" data-name="Save Icon"><path class="cls-1" d="M11.33,19.06c.48.65,1,1.29,1.46,1.94a1.38,1.38,0,0,1,.28,1.17c-.12.55-.26,1.1-.42,1.64a5.51,5.51,0,0,0-.2.8,18.34,18.34,0,0,0-.08,2.1,5.6,5.6,0,0,0,.52,1.94,5.13,5.13,0,0,0,2.68,2.85,8.58,8.58,0,0,0,3.23.65h.4a8.58,8.58,0,0,0,3.23-.65,5.13,5.13,0,0,0,2.68-2.85,5.6,5.6,0,0,0,.52-1.94,18.34,18.34,0,0,0-.08-2.1,5.51,5.51,0,0,0-.2-.8c-.16-.54-.3-1.09-.42-1.64A1.38,1.38,0,0,1,25.21,21c.48-.65,1-1.29,1.46-1.94.78-1,1.58-2.08,2.33-3.15A3.41,3.41,0,0,0,29.58,13a4.61,4.61,0,0,0-.66-1.4,3.67,3.67,0,0,0-.92-1,1,1,0,0,0-1.43.07,3.33,3.33,0,0,0-.8,1.13c-.35.76-.7,1.54-1,2.31-.54,1.28-1,2.57-1.71,3.79-.13.23-.27.44-.41.67a1.48,1.48,0,0,1-1.33.75H16.71a1.48,1.48,0,0,1-1.33-.75c-.14-.23-.28-.44-.41-.67-.66-1.22-1.17-2.51-1.71-3.79-.33-.77-.68-1.55-1-2.31a3.17,3.17,0,0,0-.79-1.13A1,1,0,0,0,10,10.6a3.67,3.67,0,0,0-.92,1A4.61,4.61,0,0,0,8.42,13,3.41,3.41,0,0,0,9,15.91C9.75,17,10.55,18,11.33,19.06Zm9,4.3a5.14,5.14,0,0,1,3.84,0,.45.45,0,0,1,.24.59.47.47,0,0,1-.6.24,4.31,4.31,0,0,0-3.12,0,.57.57,0,0,1-.18,0A.44.44,0,0,1,20.1,24,.44.44,0,0,1,20.33,23.36Zm-6.5,0a5.14,5.14,0,0,1,3.84,0,.44.44,0,0,1,.23.59.46.46,0,0,1-.59.24,4.31,4.31,0,0,0-3.12,0,.57.57,0,0,1-.18,0,.47.47,0,0,1-.42-.27A.44.44,0,0,1,13.83,23.36Z"/><path class="cls-1" d="M18.55,17.56a.6.6,0,0,0,.21.14.6.6,0,0,0,.48,0,.6.6,0,0,0,.21-.14L23,14a.63.63,0,0,0,0-.9.62.62,0,0,0-.89,0l-2.51,2.51V6.14a.64.64,0,0,0-1.28,0v9.44l-2.51-2.51a.62.62,0,0,0-.89,0,.63.63,0,0,0,0,.9Z"/><path class="cls-1" d="M30,2a6,6,0,0,1,6,6V30a6,6,0,0,1-6,6H8a6,6,0,0,1-6-6V8A6,6,0,0,1,8,2H30m0-2H8A8,8,0,0,0,0,8V30a8,8,0,0,0,8,8H30a8,8,0,0,0,8-8V8a8,8,0,0,0-8-8Z"/></g></g></g></g></svg>