<svg xmlns="http://www.w3.org/2000/svg" viewBox="0 0 38 38"><defs><style>.cls-1{fill:#f2db40;}</style></defs><title>miro_utility</title><g id="Layer_2" data-name="Layer 2"><g id="COMMAND_MENU" data-name="COMMAND MENU"><g id="Command_Icons_Default_" data-name="Command Icons (Default)"><path class="cls-1" d="M30,2a6,6,0,0,1,6,6V30a6,6,0,0,1-6,6H8a6,6,0,0,1-6-6V8A6,6,0,0,1,8,2H30m0-2H8A8,8,0,0,0,0,8V30a8,8,0,0,0,8,8H30a8,8,0,0,0,8-8V8a8,8,0,0,0-8-8Z"/><path class="cls-1" d="M15.86,5a10.83,10.83,0,1,0,6.31,19.61L30,32.46A1.75,1.75,0,1,0,32.46,30l-7.82-7.82A10.82,10.82,0,0,0,15.86,5Zm0,3.5a7.33,7.33,0,1,1-7.33,7.33A7.3,7.3,0,0,1,15.86,8.53Z"/></g></g></g></svg>