<svg xmlns="http://www.w3.org/2000/svg" viewBox="0 0 38 38"><defs><style>.cls-1{fill:#9a6ead;}</style></defs><title>miro_lists</title><g id="Layer_2" data-name="Layer 2"><g id="COMMAND_MENU" data-name="COMMAND MENU"><g id="Command_Icons_Default_" data-name="Command Icons (Default)"><path class="cls-1" d="M14.44,11.34H31.86a1,1,0,0,0,0-2H14.44a1,1,0,0,0,0,2Z"/><path class="cls-1" d="M14.35,20H31.77a1,1,0,0,0,0-2H14.35a1,1,0,0,0,0,2Z"/><path class="cls-1" d="M32,26.67H14.54a1,1,0,0,0,0,2H32a1,1,0,0,0,0-2Z"/><path class="cls-1" d="M8.51,6.87A3.48,3.48,0,1,0,12,10.35,3.47,3.47,0,0,0,8.51,6.87Zm0,5A1.48,1.48,0,1,1,10,10.35,1.47,1.47,0,0,1,8.51,11.82Z"/><path class="cls-1" d="M8.51,15.53A3.48,3.48,0,1,0,12,19,3.47,3.47,0,0,0,8.51,15.53Zm0,5A1.48,1.48,0,1,1,10,19,1.47,1.47,0,0,1,8.51,20.48Z"/><path class="cls-1" d="M8.51,24.19A3.48,3.48,0,1,0,12,27.66,3.47,3.47,0,0,0,8.51,24.19Zm0,4.95A1.48,1.48,0,1,1,10,27.66,1.47,1.47,0,0,1,8.51,29.14Z"/><path class="cls-1" d="M30,2a6,6,0,0,1,6,6V30a6,6,0,0,1-6,6H8a6,6,0,0,1-6-6V8A6,6,0,0,1,8,2H30m0-2H8A8,8,0,0,0,0,8V30a8,8,0,0,0,8,8H30a8,8,0,0,0,8-8V8a8,8,0,0,0-8-8Z"/></g></g></g></svg>