<svg xmlns="http://www.w3.org/2000/svg" viewBox="0 0 38 38"><defs><style>.cls-1{fill:#f6f6f6;}</style></defs><title>miro_settings</title><g id="Layer_2" data-name="Layer 2"><g id="MAIN_MENU_Drop_Out_" data-name="MAIN MENU (Drop Out)"><g id="MenuDropOutIcons"><g id="Settings_Icon" data-name="Settings Icon"><path class="cls-1" d="M9.43,13.42H28.57a2.7,2.7,0,0,0,2.7-2.7V9.12a2.7,2.7,0,0,0-2.7-2.7H9.43a2.7,2.7,0,0,0-2.7,2.7v1.6A2.7,2.7,0,0,0,9.43,13.42Zm19.14-5.6a1.3,1.3,0,0,1,1.3,1.3v1.6a1.3,1.3,0,0,1-1.3,1.3H26.75a1.3,1.3,0,0,1-1.3-1.3V9.12a1.3,1.3,0,0,1,1.3-1.3ZM8.13,9.12a1.3,1.3,0,0,1,1.3-1.3h15a2.63,2.63,0,0,0-.35,1.3v1.6A2.63,2.63,0,0,0,24.4,12h-15a1.3,1.3,0,0,1-1.3-1.3Z"/><path class="cls-1" d="M9.43,31.27H28.57a2.7,2.7,0,0,0,2.7-2.7V27a2.7,2.7,0,0,0-2.7-2.7H9.43A2.7,2.7,0,0,0,6.73,27v1.6A2.7,2.7,0,0,0,9.43,31.27Zm19.14-5.6a1.3,1.3,0,0,1,1.3,1.3v1.6a1.3,1.3,0,0,1-1.3,1.3H26.75a1.3,1.3,0,0,1-1.3-1.3V27a1.3,1.3,0,0,1,1.3-1.3ZM8.13,27a1.3,1.3,0,0,1,1.3-1.3h15a2.63,2.63,0,0,0-.35,1.3v1.6a2.63,2.63,0,0,0,.35,1.3h-15a1.3,1.3,0,0,1-1.3-1.3Z"/><path class="cls-1" d="M9.43,22.34H28.57a2.7,2.7,0,0,0,2.7-2.7V18.05a2.7,2.7,0,0,0-2.7-2.7H9.43a2.7,2.7,0,0,0-2.7,2.7v1.59A2.7,2.7,0,0,0,9.43,22.34Zm20.44-4.29v1.59a1.3,1.3,0,0,1-1.3,1.3h-15a2.58,2.58,0,0,0,.35-1.3V18.05a2.58,2.58,0,0,0-.35-1.3h15A1.3,1.3,0,0,1,29.87,18.05Zm-21.74,0a1.3,1.3,0,0,1,1.3-1.3h1.82a1.3,1.3,0,0,1,1.3,1.3v1.59a1.3,1.3,0,0,1-1.3,1.3H9.43a1.3,1.3,0,0,1-1.3-1.3Z"/><path class="cls-1" d="M30,2a6,6,0,0,1,6,6V30a6,6,0,0,1-6,6H8a6,6,0,0,1-6-6V8A6,6,0,0,1,8,2H30m0-2H8A8,8,0,0,0,0,8V30a8,8,0,0,0,8,8H30a8,8,0,0,0,8-8V8a8,8,0,0,0-8-8Z"/></g></g></g></g></svg>