<svg xmlns="http://www.w3.org/2000/svg" viewBox="0 0 42.35 42.35"><defs><style>.cls-1{fill:#2fac66;}.cls-2{fill:#fff;}</style></defs><title>Asset 3</title><g id="Layer_2" data-name="Layer 2"><g id="GAZEBO_WINDOW" data-name="GAZEBO WINDOW"><g id="Gazebo_Icons" data-name="Gazebo Icons"><g id="Simulate_Icon" data-name="Simulate Icon"><rect id="Box" class="cls-1" width="42.35" height="42.35" rx="8"/><g id="Symbol"><path class="cls-2" d="M18.52,11a.57.57,0,0,0,0,.82.56.56,0,0,0,.42.18.61.61,0,0,0,.4-.16l2.75-2.63a.61.61,0,0,0,.17-.42h0a.54.54,0,0,0,0-.22h0a.48.48,0,0,0-.15-.2s0,0,0,0l-2.72-2.6a.57.57,0,0,0-.82,0,.58.58,0,0,0,0,.82l1.78,1.7A13.05,13.05,0,0,0,8.51,21.2a.58.58,0,1,0,1.16,0A11.87,11.87,0,0,1,20.1,9.51Z"/><path class="cls-2" d="M32.87,20.64a.58.58,0,0,0-.59.58A11.86,11.86,0,0,1,21.85,32.91l1.59-1.52a.58.58,0,0,0,0-.82.59.59,0,0,0-.83,0l-2.74,2.63a.53.53,0,0,0-.17.42h0a.78.78,0,0,0,0,.22h0a.75.75,0,0,0,.15.2l0,0,2.71,2.6a.58.58,0,0,0,.4.16.56.56,0,0,0,.42-.18.57.57,0,0,0,0-.82l-1.78-1.7A13.05,13.05,0,0,0,33.45,21.22.58.58,0,0,0,32.87,20.64Z"/><path class="cls-2" d="M20.21,28.1l.23-.58h0a7.86,7.86,0,0,0,1.68,0h0l0,0,.21.54a1.11,1.11,0,0,0,.57.58,1.09,1.09,0,0,0,.41.09.87.87,0,0,0,.4-.09l1-.39a1.15,1.15,0,0,0,.57-.58,1,1,0,0,0,0-.84l-.22-.58,0,0a6.15,6.15,0,0,0,1.17-1.17l0,0h0l.54.21a1,1,0,0,0,.84,0,1.06,1.06,0,0,0,.57-.57l.4-1a1.11,1.11,0,0,0,0-.84,1.19,1.19,0,0,0-.58-.57l-.58-.23v0a6.75,6.75,0,0,0,0-1.68v0l.58-.22a1.17,1.17,0,0,0,.58-.58,1.11,1.11,0,0,0,0-.84l-.4-1a1.07,1.07,0,0,0-1.41-.58l-.58.23,0,0a6.43,6.43,0,0,0-1.17-1.16l0,0v0l.21-.55a1,1,0,0,0,0-.84,1.13,1.13,0,0,0-.57-.57l-1-.39a1.09,1.09,0,0,0-.83,0,1.1,1.1,0,0,0-.58.58l-.23.58h0a7.86,7.86,0,0,0-1.68,0h0v0l-.22-.55a1.1,1.1,0,0,0-.58-.58,1.09,1.09,0,0,0-.83,0l-1,.39a1.11,1.11,0,0,0-.57.58,1,1,0,0,0,0,.83l.23.58,0,0a6.45,6.45,0,0,0-1.17,1.17l0,0,0,0-.54-.21a1.07,1.07,0,0,0-1.41.58l-.4,1a1.09,1.09,0,0,0,.58,1.42l.58.22v0a7.86,7.86,0,0,0,0,1.68v0l-.58.23a1.08,1.08,0,0,0-.58.59,1.06,1.06,0,0,0,0,.82l.4,1a1.1,1.1,0,0,0,.58.58,1,1,0,0,0,.83,0l.58-.22,0,0a5.87,5.87,0,0,0,1.17,1.17l0,0-.23.58a1,1,0,0,0,0,.84,1.13,1.13,0,0,0,.58.58l1,.39a1.19,1.19,0,0,0,.87,0A1.11,1.11,0,0,0,20.21,28.1Zm-1.92-5.65a3.29,3.29,0,0,1,1.78-4.28A3.28,3.28,0,0,1,24.35,20a3.28,3.28,0,0,1,0,2.5,3.23,3.23,0,0,1-1.78,1.79,3.69,3.69,0,0,1-1.25.23A3.29,3.29,0,0,1,18.29,22.45Z"/></g></g></g></g></g></svg>