<svg xmlns="http://www.w3.org/2000/svg" viewBox="0 0 38 38"><defs><style>.cls-1{fill:#fab651;}</style></defs><title>miro_math</title><g id="Layer_2" data-name="Layer 2"><g id="COMMAND_MENU" data-name="COMMAND MENU"><g id="Command_Icons_Default_" data-name="Command Icons (Default)"><path class="cls-1" d="M17.24,21.62a1,1,0,0,0-1.41,0l-3.32,3.32L9.19,21.62A1,1,0,0,0,7.78,23l3.32,3.32L7.78,29.67a1,1,0,0,0,.71,1.71,1,1,0,0,0,.7-.3l3.32-3.31,3.32,3.31a1,1,0,0,0,.71.3,1,1,0,0,0,.7-1.71l-3.31-3.32L17.24,23A1,1,0,0,0,17.24,21.62Z"/><path class="cls-1" d="M17.52,11.63h-4v-4a1,1,0,1,0-2,0v4h-4a1,1,0,0,0,0,2h4v4a1,1,0,0,0,2,0v-4h4a1,1,0,0,0,0-2Z"/><path class="cls-1" d="M21.68,13.63H30.5a1,1,0,0,0,0-2H21.68a1,1,0,0,0,0,2Z"/><path class="cls-1" d="M30.4,25.59H21.58a1,1,0,0,0,0,2H30.4a1,1,0,0,0,0-2Z"/><path class="cls-1" d="M24.92,23A1.06,1.06,0,0,0,26,24h0A1.07,1.07,0,1,0,24.92,23Z"/><path class="cls-1" d="M25.89,29a1.17,1.17,0,0,0,0,2.33h0a1.17,1.17,0,0,0,0-2.33Z"/><path class="cls-1" d="M30,2a6,6,0,0,1,6,6V30a6,6,0,0,1-6,6H8a6,6,0,0,1-6-6V8A6,6,0,0,1,8,2H30m0-2H8A8,8,0,0,0,0,8V30a8,8,0,0,0,8,8H30a8,8,0,0,0,8-8V8a8,8,0,0,0-8-8Z"/></g></g></g></svg>