<svg width="331" height="80" xmlns="http://www.w3.org/2000/svg">
 <style type="text/css">.st0{display:none;} .st1{display:inline;fill:#ffffff;} .st2{display:inline;} .st3{fill:#ffffff;} .st4{fill:url(#SVGID_1_);} .st5{fill:url(#SVGID_2_);}</style>

 <g>
  <title>background</title>
  <rect x="-1" y="-1" width="333" height="82" id="canvas_background" fill="none"/>
 </g>
 <g>
  <title>Layer 1</title>
  <g id="Layer_11">
   <g id="svg_109">
    <path fill="#ffffff" class="st3" d="m45.4,28.7l0,0c0,-0.4 -0.3,-0.6 -0.4,-0.7c-0.2,-0.1 -0.5,-0.1 -0.9,0.1c0.1,0.1 0.2,0.2 0.2,0.3l0.1,0.1l0.1,0.2c0.1,0.1 0.1,0.3 0.3,0.4l0.7,0c-0.1,-0.2 -0.1,-0.3 -0.1,-0.4" id="svg_110"/>
    <path fill="#ffffff" class="st3" d="m44.3,28.6l0,0l-0.2,-0.2c-0.1,-0.1 -0.2,-0.3 -0.3,-0.4l-0.1,-0.1c-0.2,-0.1 -1.1,-0.2 -1.8,0c0.1,0.1 0.2,0.3 0.3,0.4l0.1,0.1l0.1,0.2c0.1,0.1 0.1,0.3 0.3,0.4l1.8,0c-0.1,-0.2 -0.2,-0.3 -0.2,-0.4" id="svg_111"/>
    <path fill="#ffffff" class="st3" d="m42.2,28.6l0,0l0,0l-0.1,-0.2c-0.1,-0.1 -0.2,-0.3 -0.4,-0.4c-0.2,-0.1 -1.1,-0.2 -1.8,0c0.1,0.1 0.2,0.3 0.3,0.4l0.1,0.1l0.1,0.2c0.1,0.1 0.1,0.3 0.3,0.4l1.8,0c-0.2,-0.3 -0.2,-0.4 -0.3,-0.5" id="svg_112"/>
    <path fill="#ffffff" class="st3" d="m40.3,28.6l0,0l-0.2,-0.2c-0.1,-0.1 -0.2,-0.3 -0.4,-0.4c-0.2,-0.1 -1.1,-0.2 -1.8,0c0.1,0.1 0.2,0.3 0.3,0.4l0.1,0.1l0.1,0.2c0,0.1 0.1,0.3 0.3,0.4l1.8,0c-0.2,-0.3 -0.2,-0.4 -0.2,-0.5" id="svg_113"/>
    <path fill="#ffffff" class="st3" d="m38.1,28.6l0,0l-0.2,-0.2c-0.1,-0.1 -0.2,-0.3 -0.4,-0.4c-0.2,-0.1 -1.1,-0.2 -1.8,0c0.1,0.1 0.2,0.2 0.3,0.3l0.1,0.1l0.1,0.2c0.1,0.2 0.2,0.4 0.4,0.4l1.7,0c-0.1,-0.2 -0.1,-0.3 -0.2,-0.4" id="svg_114"/>
    <path fill="#ffffff" class="st3" d="m36.1,28.6l0,0l-0.2,-0.2c-0.1,-0.1 -0.2,-0.3 -0.4,-0.4l-0.1,0c-0.3,-0.1 -0.6,0 -0.9,0.2c-0.1,0.1 -0.1,0.2 -0.1,0.3l0,0c0,0.2 0.1,0.4 0.2,0.5l1.5,0c0.1,-0.2 0.1,-0.3 0,-0.4" id="svg_115"/>
    <path fill="#ffffff" class="st3" d="m43.9,16.3c-1.2,-1.4 -2.7,-1.9 -3.7,-2l-0.2,-0.4l0.4,0.2l0,-0.6l-0.4,0.2l0.2,-0.4l-0.6,0l0.2,0.4l-0.4,-0.2l0,0.6l0.4,-0.2l-0.2,0.4c-1,0 -2.5,0.6 -3.7,2c-0.1,0.1 -0.1,0.3 0,0.4s0.2,0.1 0.3,0.3c0.1,0.1 0.4,0.7 0.4,0.9s0.1,0.4 0.1,0.4s0,0.3 0.1,0.4c0.1,0.1 0.3,0.1 0.4,0.2c0,0.1 0,0.2 0.3,0.1c0.3,-0.1 1.3,-0.4 2.5,-0.4s2.3,0.4 2.5,0.4c0.3,0.1 0.3,0 0.3,-0.1s0.2,-0.1 0.4,-0.2c0.1,-0.1 0.1,-0.4 0.1,-0.4s0,-0.3 0.1,-0.4c0.1,-0.2 0.4,-0.8 0.4,-0.9s0.2,-0.1 0.3,-0.3c0,-0.1 -0.1,-0.3 -0.2,-0.4m-4.3,1l0,0c-0.2,0.1 -0.4,0.1 -0.4,0.1c-0.4,0 -0.5,-0.1 -0.5,-0.2c-0.1,-0.2 0.1,-0.5 0.4,-0.5c0,0 -0.1,-0.5 -0.6,-0.2c0,0 0,-0.4 -0.4,-0.5c-0.3,0.3 0,0.6 0,0.6c-0.6,0 -0.4,0.5 -0.4,0.5c0.2,-0.3 0.6,-0.1 0.6,0.2c0,0.2 -0.4,0.4 -0.8,0.2c-0.4,-0.1 -0.6,-0.8 -0.5,-1c0.6,-1 1.9,-1.3 2.1,-1.4c0.2,-0.1 0.3,0 0.4,0.1c0,0.1 0.2,0.4 0.4,0.7l-0.3,0l0.3,0.6l-0.7,-0.2l0,0.9l0.6,-0.3l-0.2,0.4zm2.9,0.3l0,0c-0.4,0.1 -0.8,0 -0.8,-0.2c0,-0.3 0.4,-0.4 0.6,-0.2c0,0 0.3,-0.4 -0.4,-0.5c0,0 0.3,-0.4 0,-0.6c-0.4,0.1 -0.4,0.5 -0.4,0.5c-0.5,-0.4 -0.6,0.2 -0.6,0.2c0.3,-0.1 0.5,0.3 0.4,0.5c0,0.1 -0.1,0.2 -0.5,0.2c-0.1,0 -0.4,-0.1 -0.4,-0.1l-0.2,-0.4l0.6,0.3l0,-0.9l-0.6,0.3l0.3,-0.5l-0.3,0c0.2,-0.3 0.4,-0.6 0.4,-0.7c0,-0.1 0.2,-0.2 0.4,-0.1c0.2,0.1 1.5,0.5 2.1,1.4c0,0 -0.2,0.7 -0.6,0.8" id="svg_116"/>
    <path fill="#ffffff" class="st3" d="m40.1,18.8l0,0l-5.6,0l0,0.5c0,0 0.5,0 1.1,0.3c0.4,0.2 0.5,0.6 0.6,0.8l0,6.3l-0.4,0l0.7,1.1l0.7,-1.1l-0.4,0l0,-0.5l1.8,0l0,0.5l-0.4,0l0.7,1.1l0.7,-1.1l-0.4,0l0,-0.5l1.8,0l0,0.5l-0.4,0l0.7,1.1l0.7,-1.1l-0.4,0l0,-0.5l1.8,0l0,0.5l-0.4,0l0.7,1.1l0.7,-1.1l-0.4,0l0,-6.4c0.1,-0.2 0.3,-0.6 0.6,-0.8c0.4,-0.3 1.1,-0.3 1.1,-0.3l0,-0.5l-5.6,0.1l0,0zm3.2,3.3l0,0l-1.8,0l0,-2.5l1.8,0l0,2.5zm-3.3,-2.5l0,0l0,0l0.9,0l0,2.5l-1.8,0l0,-2.5l0.9,0zm-3.3,0l0,0l1.8,0l0,2.5l-1.8,0l0,-2.5zm0,3.3l0,0l1.8,0l0,2.5l-1.8,0l0,-2.5zm2.5,0l0,0l1.8,0l0,2.5l-1.8,0l0,-2.5zm2.4,0l0,0l1.8,0l0,2.5l-1.8,0l0,-2.5z" id="svg_117"/>
    <path fill="#ffffff" class="st3" d="m34.6,19.6c0,0.4 0.3,0.6 0.6,0.6c0.4,0 0.6,-0.3 0.6,-0.6s-0.3,-0.6 -0.6,-0.6c-0.3,0 -0.6,0.2 -0.6,0.6m0.3,0l0,0c0,-0.2 0.2,-0.4 0.4,-0.4c0.2,0 0.4,0.2 0.4,0.4s-0.2,0.4 -0.4,0.4c-0.2,-0.1 -0.4,-0.2 -0.4,-0.4" id="svg_118"/>
    <path fill="#ffffff" class="st3" d="m34.6,20.3l-0.2,1.1l0.9,0.1l0.2,-1.1l-0.9,-0.1l0,0zm0.3,0.2l0,0c0.1,0 0.2,0 0.4,0.1c0,0.2 -0.1,0.4 -0.1,0.6c-0.1,0 -0.2,0 -0.4,-0.1c0,-0.2 0.1,-0.5 0.1,-0.6" id="svg_119"/>
    <path fill="#ffffff" class="st3" d="m34.5,21.6l0,1.1l0.9,0l0,-1.1l-0.9,0l0,0zm0.2,0.2l0,0c0.1,0 0.2,0 0.4,0c0,0.2 0,0.4 0,0.6c-0.1,0 -0.2,0 -0.4,0c0,-0.2 0,-0.4 0,-0.6" id="svg_120"/>
    <path fill="#ffffff" class="st3" d="m35.2,22.7l-0.8,0l0,1.1l0.9,0l-0.1,-1.1l0,0zm-0.1,0.3l0,0c0,0.2 0,0.4 0,0.6l-0.4,0c0,-0.2 0,-0.4 0,-0.6c0.1,0.1 0.2,0.1 0.4,0" id="svg_121"/>
    <path fill="#ffffff" class="st3" d="m34.4,24.1l-0.1,1.1l0.9,0.1l0.1,-1.1l-0.9,-0.1l0,0zm0.2,0.2l0,0c0.1,0 0.2,0 0.4,0c0,0.2 -0.1,0.4 -0.1,0.6c-0.1,0 -0.2,0 -0.4,0c0.1,-0.1 0.1,-0.4 0.1,-0.6" id="svg_122"/>
    <path fill="#ffffff" class="st3" d="m34.2,25.4l-0.3,1.1l0.9,0.2l0.3,-1.1l-0.9,-0.2l0,0zm0.3,0.1l0,0c0.1,0 0.2,0.1 0.4,0.1c0,0.2 -0.1,0.4 -0.2,0.6c-0.1,0 -0.2,-0.1 -0.4,-0.1c0.1,-0.1 0.2,-0.4 0.2,-0.6" id="svg_123"/>
    <path fill="#ffffff" class="st3" d="m33.9,26.5l-0.5,0.9l0.8,0.4l0.6,-1l-0.9,-0.3l0,0zm0.2,0.3l0,0c0.1,0.1 0.2,0.1 0.3,0.2c-0.1,0.2 -0.2,0.4 -0.3,0.5c-0.1,-0.1 -0.2,-0.1 -0.3,-0.2c0.1,-0.1 0.2,-0.4 0.3,-0.5" id="svg_124"/>
    <path fill="#ffffff" class="st3" d="m32.9,28.3c0,0.4 0.3,0.6 0.6,0.6s0.6,-0.3 0.6,-0.6c0,-0.4 -0.3,-0.6 -0.6,-0.6c-0.3,-0.1 -0.6,0.2 -0.6,0.6m0.3,0l0,0c0,-0.2 0.2,-0.4 0.4,-0.4c0.2,0 0.4,0.2 0.4,0.4c0,0.2 -0.2,0.4 -0.4,0.4c-0.3,-0.1 -0.4,-0.3 -0.4,-0.4" id="svg_125"/>
    <path fill="#ffffff" class="st3" d="m44.9,19c-0.4,0 -0.6,0.3 -0.6,0.6c0,0.4 0.3,0.6 0.6,0.6c0.4,0 0.6,-0.3 0.6,-0.6c0,-0.4 -0.3,-0.6 -0.6,-0.6m0,0.9l0,0c-0.2,0 -0.4,-0.2 -0.4,-0.4c0,-0.2 0.2,-0.4 0.4,-0.4s0.4,0.2 0.4,0.4c-0.1,0.3 -0.2,0.4 -0.4,0.4" id="svg_126"/>
    <path fill="#ffffff" class="st3" d="m45.4,20.1l-0.9,0.1l0.2,1.1l0.9,-0.1l-0.2,-1.1l0,0zm-0.2,1l0,0c-0.1,0 -0.2,0 -0.4,0c0,-0.2 -0.1,-0.4 -0.1,-0.6c0.1,0 0.2,0 0.4,-0.1c0.1,0.2 0.1,0.5 0.1,0.7" id="svg_127"/>
    <path fill="#ffffff" class="st3" d="m45.6,21.5l-0.9,0l0,1.1l0.9,0l0,-1l0,-0.1zm-0.3,0.9l0,0c-0.1,0 -0.2,0 -0.4,0c0,-0.2 0,-0.4 0,-0.6c0.1,0 0.2,0 0.4,0c0,0.2 0,0.4 0,0.6" id="svg_128"/>
    <path fill="#ffffff" class="st3" d="m44.8,22.7l0,1.1l0.9,0l0,-1.1l-0.9,0l0,0zm0.6,0.4l0,0c0,0.2 0,0.4 0,0.6l-0.4,0c0,-0.2 0,-0.4 0,-0.6c0.2,0 0.2,0 0.4,0" id="svg_129"/>
    <path fill="#ffffff" class="st3" d="m45.7,24l-0.9,0.1l0.1,1.1l0.9,-0.1l-0.1,-1.1l0,0zm-0.2,0.9l0,0c-0.1,0 -0.2,0 -0.4,0c0,-0.2 -0.1,-0.4 -0.1,-0.6c0.1,0 0.2,0 0.4,0c0,0.2 0.1,0.5 0.1,0.6" id="svg_130"/>
    <path fill="#ffffff" class="st3" d="m45.9,25.2l-0.9,0.2l0.3,1.1l0.9,-0.2l-0.3,-1.1l0,0zm-0.1,1l0,0c-0.1,0 -0.2,0.1 -0.4,0.1c0,-0.2 -0.1,-0.4 -0.2,-0.6c0.1,0 0.2,-0.1 0.4,-0.1c0.1,0.1 0.1,0.4 0.2,0.6" id="svg_131"/>
    <path fill="#ffffff" class="st3" d="m46.1,26.4l-0.8,0.4l0.5,1.1l0.8,-0.4l-0.5,-0.9l0,-0.2zm0.2,1l0,0c-0.1,0.1 -0.2,0.1 -0.3,0.2c-0.1,-0.2 -0.2,-0.4 -0.3,-0.5c0.1,-0.1 0.2,-0.1 0.3,-0.2c0,0 0.2,0.3 0.3,0.5" id="svg_132"/>
    <path fill="#ffffff" class="st3" d="m46.6,27.6c-0.4,0 -0.6,0.3 -0.6,0.6s0.3,0.6 0.6,0.6s0.6,-0.3 0.6,-0.6c0.1,-0.3 -0.2,-0.6 -0.6,-0.6m0,1l0,0c-0.2,0 -0.4,-0.2 -0.4,-0.4s0.2,-0.4 0.4,-0.4c0.2,0 0.4,0.2 0.4,0.4c0,0.2 -0.2,0.4 -0.4,0.4" id="svg_133"/>
    <path fill="#ffffff" class="st3" d="m23,29.4l0.9,0.4l0.6,0.3l1.1,0.4c-0.1,-0.3 -0.1,-0.5 -0.1,-0.5s0.4,0.2 0.7,-0.2c0.4,-0.4 0,-1 -0.5,-1.5c-0.5,-0.5 -1.1,-0.5 -1.9,-0.3c-0.5,0.2 -0.9,0.6 -1.1,1.1c0,0.1 0.2,0.2 0.3,0.3" id="svg_134"/>
    <path fill="#ffffff" class="st3" d="m16.2,42.5c-1,1.1 -1.4,1.4 -1.6,1.8c0,0 -0.4,0.3 -0.2,0.4c0.2,0.2 1.3,0.4 2.4,0.3c-0.5,0.7 -1.2,1.8 -1.4,2.6c-0.2,1 0.4,1.9 0.8,2c0.4,0.2 1,0 1.2,-0.4c0.4,-0.5 0.6,-2 0.6,-2s0.7,0 1.4,0c-0.6,-3.2 -1.7,-6 -2.2,-7.1c0,0.8 -0.3,1.6 -1,2.4m15.8,-4.4l0,0c-0.3,0 -0.6,-0.1 -0.7,0c0,0 -0.1,-0.6 0.1,-0.9c0.2,-0.3 0.1,-0.4 0.4,-0.4c0,0 -0.6,-0.3 -0.8,0c-0.2,0.3 -0.4,0.6 -0.4,0.9c0,0 -0.2,0.3 -0.3,0.3c0,0 0.1,0.5 0.1,1c0,0.4 -0.1,1.1 -0.3,1.7c-0.2,0.6 -0.7,1.5 -0.9,1.7c-0.1,0.2 -0.4,0.4 -0.4,0.2c0,-0.1 -0.1,-0.2 -0.1,-0.3s0,-0.2 0,-0.3c0,-0.4 0.2,-0.7 0.3,-1.3c0.2,-0.4 0.4,-0.9 0.6,-1.3c0.3,-0.8 0.9,-1.8 0.5,-3.8c-0.3,-2 -2.2,-3.4 -2.7,-3.8c-0.3,-0.3 -0.8,-0.4 -1.6,-0.8c-0.6,-0.3 -1.4,-0.6 -2.5,-1.1c-0.4,-0.2 -0.6,-0.3 -0.9,-0.4c-1.6,-0.8 -1.8,-1.6 -1.9,-2c-0.1,-0.5 0.4,-1.7 1.9,-1.8c1.7,-0.1 2.7,1 3.1,1.4s0.7,1.1 1.1,1.7c0.4,0.5 1.3,0.7 1.3,0.7c0.4,0.6 1.1,1.2 1.3,1.4c0.1,0.1 0.3,0.3 0.4,0.4l0.1,0.1c0,0 0,0 0,-0.1c0.1,0.1 0.1,0.2 0.2,0.2c0.1,0.1 0.2,-0.2 0.2,-0.4s-0.1,-0.4 -0.2,-0.6s-0.4,-0.9 -0.4,-1.1s-0.2,-0.4 -0.2,-0.5l0,0c0,0 0.2,-0.8 -0.6,-1.8c-0.5,-0.8 -1.5,-1.1 -1.8,-1.2c-0.4,-0.2 -1.4,-0.9 -2,-1.1c-0.6,-0.3 -1.8,-0.6 -2.7,-0.5c-1,0.1 -2.5,0.5 -3.2,2.3c-0.6,1.7 0.2,2.9 0.5,3.7c0.7,-0.4 1.3,-0.2 1.8,-0.1c0.6,0.2 1.4,0.4 1.8,0.8c0.6,0.4 0.8,1.1 0.8,1.8c0,0.4 -0.1,0.6 -0.1,0.8c-0.1,0.4 -0.4,0.6 -0.6,0.8c0.1,0.1 0.2,0.2 0.2,0.4c0.1,0.1 0.1,0.3 0.1,0.4c0.4,-0.2 1.1,-0.2 2,-0.3l0.4,0c0.1,0 0.3,0.1 0.3,0.2s-0.1,0.3 -0.2,0.3l-0.4,0c-0.7,0 -1.8,0.1 -2.1,0.4l-0.4,0.4l0.1,-0.5c0,0 0,-0.2 -0.1,-0.4c-0.2,-0.3 -0.3,-0.4 -0.3,-0.4l-0.4,-0.3l0.4,-0.1c0,0 0.5,-0.2 0.6,-0.6c0,-0.2 0.3,-1.4 -0.5,-2c-0.4,-0.3 -1.1,-0.6 -1.7,-0.7c-0.6,-0.2 -1.5,-0.4 -2.3,0.7c-1.5,1.8 -2.3,3.4 -2.4,4.8c0,0.1 0,0.3 0,0.4c0,1.3 0.4,2.1 0.9,2.7l0.3,0.5c0.4,0.8 1.7,3.8 2.4,7.5l0,0.1c0.1,0.3 0.1,0.6 0.2,0.7c0.7,-0.7 4.4,-4.7 4.7,-6.5l0,-0.1l0.1,-0.1c0.1,-0.1 1.4,-1.2 1.4,-3.2c0,-0.4 -0.1,-0.8 -0.2,-1.1c0,0 0,0 0,-0.1s0.1,-0.2 0.2,-0.2s0.3,0 0.3,0.2c0.1,0.4 0.2,0.9 0.2,1.2c0,2 -1.3,3.3 -1.5,3.6c-0.4,1.2 -2,3.4 -3.3,4.9c0.1,0.4 0.1,0.6 0.1,0.9c0,0.3 0.2,0.7 0.3,1.1c0,0.1 0,0.1 0.1,0.2c0.1,0.3 -0.1,1.9 -0.2,2.4c-0.1,0.4 -1,1.1 -1.3,1.4c-0.3,0.2 -0.2,0.4 -0.2,0.4c0,0 0.4,-0.3 0.7,-0.3c0.4,0 0.8,-0.1 1.3,0.2c0.5,0.4 0.9,0.4 1,0.9c0.1,0.3 0.1,0.4 0.1,0.4s0.4,-0.4 0.4,-0.8c0,0 0.8,-0.5 1.3,-0.6c0.4,-0.1 1,0.1 1.1,0.4c0,0 0.1,-0.5 -0.3,-0.8c-0.2,-0.2 -0.4,-0.4 -0.4,-0.4s0.3,-0.2 0.4,0c0,0 -0.1,-0.5 -0.3,-0.5c-0.3,0 -1.2,0 -1.6,0s-1.1,-0.2 -1.2,-0.5c-0.2,-0.4 0,-2.1 0.2,-2.3c0.1,-0.1 0.2,-0.1 0.2,-0.1c0.1,0 0.2,0.1 0.3,0.1c0,0 0.2,-0.4 0.4,-0.7c0.2,-0.2 1,-1.1 1.4,-2.3c0.9,0 1.6,-0.1 2.2,-0.5c0.8,-0.5 1.5,-1 1.8,-0.9c0,0 0.1,-0.6 -0.3,-0.8c0,0 0.7,-1 0.9,-1.5c0.2,-0.4 0.5,-0.4 0.5,-0.3c0,0.3 -0.3,1.2 1.1,1.1c0,0 -0.3,-0.2 -0.3,-0.4c0,-0.3 -0.3,-2.5 -0.1,-2.9c0.2,-0.4 0.4,-1.1 0.6,-1.2c0.2,-0.1 0.3,0 0.4,0.1c-0.3,-0.4 -0.5,-0.8 -0.8,-0.9" id="svg_135"/>
    <path fill="#ffffff" class="st3" d="m42.9,21.7c0,-0.1 -0.1,-0.1 -0.1,-0.2s-0.1,-0.1 -0.2,-0.2c0,-0.1 0,-0.2 -0.1,-0.2c0,-0.1 -0.1,-0.1 -0.2,-0.2s-0.1,-0.1 -0.2,-0.1s-0.1,-0.1 -0.2,-0.1s-0.1,-0.1 -0.2,-0.1s-0.1,-0.1 -0.1,-0.1l0,1.2l1.1,0c0.2,0.2 0.2,0.1 0.2,0m-1.1,2.2l0,0c0.1,0 0.1,-0.1 0.2,-0.1s0.1,-0.1 0.2,-0.1c0.1,-0.1 0.2,-0.1 0.2,-0.1c0.1,-0.1 0.1,-0.2 0.1,-0.2c0.1,-0.1 0.1,-0.1 0.2,-0.2c0,-0.1 0.2,-0.1 0.2,-0.1l-1,0l0,0.8l-0.1,0zm-1.5,-3.7l0,0c-0.1,0 -0.2,0 -0.3,0c-0.1,0 -0.1,0 -0.2,0c-0.1,0 -0.1,-0.1 -0.2,0c-0.1,0 -0.1,0.1 -0.2,0.1l-0.1,0l0,1.7l1.2,0l0,-1.7c-0.1,0 -0.1,-0.1 -0.2,-0.1c0.1,-0.1 0,0 0,0m-0.9,4.1l0,0l0,0c0.1,0.4 0.1,0.6 0,0.9l0.8,0c0,-0.3 0.1,-0.5 0.4,-0.9l0,0l0,-1.1l-1.2,0l0,1.1l0,0zm-2,-1.1l0,0c0,0.1 0.1,0.1 0.2,0.1c0,0.1 0.1,0.1 0.2,0.2c0.1,0.1 0.1,0.1 0.2,0.2c0.1,0 0.1,0.1 0.2,0.1s0.1,0.2 0.2,0.2l0.1,0l0,-0.8l-1.1,0l0,0m0.6,-2.4l0,0c-0.1,0.1 -0.1,0.1 -0.2,0.2s-0.1,0.1 -0.2,0.1c-0.1,0.1 -0.1,0.1 -0.1,0.2s-0.1,0.2 -0.1,0.2c0,0.1 -0.1,0.1 -0.1,0.2c0,0.1 0,0.2 -0.1,0.2c0,0 0,0 0,0.1l1,0l0,-1.2l-0.1,0.1c0,-0.1 0,-0.1 -0.1,-0.1" id="svg_136"/>
    <polygon fill="#ffffff" class="st3" points="19.900001525878906,56.19999694824219 20.900001525878906,56.19999694824219 20.900001525878906,56.5 20.300003051757812,56.5 20.300003051757812,56.69999694824219 20.800003051757812,56.69999694824219 20.800003051757812,57 20.300003051757812,57 20.300003051757812,57.5 19.900001525878906,57.5 " id="svg_137"/>
    <path fill="#ffffff" class="st3" d="m21.6,56.2c0.4,0 0.6,0.3 0.6,0.7c0,0.4 -0.3,0.7 -0.6,0.7c-0.4,0 -0.6,-0.3 -0.6,-0.7c0,-0.4 0.2,-0.7 0.6,-0.7m0,1.1l0,0c0.3,0 0.4,-0.2 0.4,-0.4c0,-0.3 -0.1,-0.4 -0.4,-0.4c-0.3,0 -0.4,0.2 -0.4,0.4c0,0.2 0.1,0.4 0.4,0.4" id="svg_138"/>
    <path fill="#ffffff" class="st3" d="m22.4,56.2l0.7,0c0.3,0 0.4,0.2 0.4,0.4c0,0.2 -0.1,0.3 -0.2,0.4l0,0c0.2,0 0.2,0.2 0.2,0.3s0,0.3 0.1,0.4l-0.3,0c0,-0.1 0,-0.2 -0.1,-0.4c0,-0.2 -0.1,-0.2 -0.2,-0.2l-0.3,0l0,0.5l-0.3,0l0,-1.4l0,0zm0.3,0.6l0,0l0.4,0c0.1,0 0.2,-0.1 0.2,-0.2s-0.1,-0.2 -0.2,-0.2l-0.4,0l0,0.4z" id="svg_139"/>
    <polygon fill="#ffffff" class="st3" points="24.5,56.5 24.099998474121094,56.5 24.099998474121094,56.19999694824219 25.199996948242188,56.19999694824219 25.199996948242188,56.5 24.800003051757812,56.5 24.800003051757812,57.5 24.5,57.5 " id="svg_140"/>
    <polygon fill="#ffffff" class="st3" points="25.400001525878906,56.19999694824219 25.599998474121094,56.19999694824219 25.599998474121094,56.69999694824219 26.099998474121094,56.69999694824219 26.099998474121094,56.19999694824219 26.400001525878906,56.19999694824219 26.400001525878906,57.5 26.099998474121094,57.5 26.099998474121094,57 25.599998474121094,57 25.599998474121094,57.5 25.400001525878906,57.5 " id="svg_141"/>
    <polygon fill="#ffffff" class="st3" points="26.699996948242188,56.19999694824219 27.599998474121094,56.19999694824219 27.599998474121094,56.5 26.900001525878906,56.5 26.900001525878906,56.69999694824219 27.5,56.69999694824219 27.5,57 26.900001525878906,57 26.900001525878906,57.30000305175781 27.599998474121094,57.30000305175781 27.599998474121094,57.5 26.699996948242188,57.5 " id="svg_142"/>
    <path fill="#ffffff" class="st3" d="m29.4,57.6l-0.2,-0.2c-0.1,0.1 -0.2,0.1 -0.4,0.1c-0.4,0 -0.6,-0.3 -0.6,-0.7c0,-0.4 0.3,-0.7 0.6,-0.7c0.4,0 0.6,0.3 0.6,0.7c0,0.2 -0.1,0.4 -0.2,0.4l0.3,0.3l-0.1,0.1zm-0.4,-0.5l0,0l0.2,0.2c0.1,-0.1 0.1,-0.2 0.1,-0.3c0,-0.3 -0.1,-0.4 -0.4,-0.4c-0.3,0 -0.4,0.2 -0.4,0.4c0,0.2 0.1,0.4 0.4,0.4c0.1,0 0.1,0 0.1,0l-0.1,-0.1l0.1,-0.2z" id="svg_143"/>
    <path fill="#ffffff" class="st3" d="m30.8,57.1c0,0.4 -0.2,0.5 -0.5,0.5s-0.5,-0.2 -0.5,-0.5l0,-0.8l0.3,0l0,0.8c0,0.2 0,0.3 0.3,0.3c0.2,0 0.3,-0.1 0.3,-0.3l0,-0.8l0.3,0l-0.2,0.8l0,0z" id="svg_144"/>
    <polygon fill="#ffffff" class="st3" points="31.099998474121094,56.19999694824219 32,56.19999694824219 32,56.5 31.300003051757812,56.5 31.300003051757812,56.69999694824219 32,56.69999694824219 32,57 31.300003051757812,57 31.300003051757812,57.30000305175781 32,57.30000305175781 32,57.5 31.099998474121094,57.5 " id="svg_145"/>
    <polygon fill="#ffffff" class="st3" points="32.30000305175781,56.19999694824219 33.19999694824219,56.19999694824219 33.19999694824219,56.5 32.5,56.5 32.5,56.69999694824219 33.19999694824219,56.69999694824219 33.19999694824219,57 32.5,57 32.5,57.30000305175781 33.19999694824219,57.30000305175781 33.19999694824219,57.5 32.30000305175781,57.5 " id="svg_146"/>
    <polygon fill="#ffffff" class="st3" points="33.400001525878906,56.19999694824219 33.69999694824219,56.19999694824219 34.19999694824219,57.099998474121094 34.19999694824219,57.099998474121094 34.19999694824219,56.19999694824219 34.5,56.19999694824219 34.5,57.5 34.19999694824219,57.5 33.69999694824219,56.599998474121094 33.69999694824219,56.599998474121094 33.69999694824219,57.5 33.400001525878906,57.5 " id="svg_147"/>
    <path fill="#ffffff" class="st3" d="m34.7,57.3l0.3,0l0,0.3c0,0.2 -0.1,0.3 -0.3,0.3l0,-0.1c0.1,0 0.2,-0.1 0.1,-0.2l-0.1,0l0,-0.3z" id="svg_148"/>
    <polygon fill="#ffffff" class="st3" points="36,56.5 35.599998474121094,56.5 35.599998474121094,56.19999694824219 36.69999694824219,56.19999694824219 36.69999694824219,56.5 36.30000305175781,56.5 36.30000305175781,57.5 36,57.5 " id="svg_149"/>
    <polygon fill="#ffffff" class="st3" points="36.80000305175781,56.19999694824219 37.099998474121094,56.19999694824219 37.099998474121094,56.69999694824219 37.599998474121094,56.69999694824219 37.599998474121094,56.19999694824219 38,56.19999694824219 38,57.5 37.599998474121094,57.5 37.599998474121094,57 37.099998474121094,57 37.099998474121094,57.5 36.80000305175781,57.5 " id="svg_150"/>
    <polygon fill="#ffffff" class="st3" points="38.099998474121094,56.19999694824219 39.099998474121094,56.19999694824219 39.099998474121094,56.5 38.5,56.5 38.5,56.69999694824219 39.099998474121094,56.69999694824219 39.099998474121094,57 38.5,57 38.5,57.30000305175781 39.19999694824219,57.30000305175781 39.19999694824219,57.5 38.099998474121094,57.5 " id="svg_151"/>
    <polygon fill="#ffffff" class="st3" points="39.80000305175781,56.19999694824219 40.19999694824219,56.19999694824219 40.19999694824219,57.30000305175781 40.80000305175781,57.30000305175781 40.80000305175781,57.5 39.80000305175781,57.5 " id="svg_152"/>
    <path fill="#ffffff" class="st3" d="m41.3,56.2l0.3,0l0.4,1.3l-0.3,0l-0.1,-0.3l-0.5,0l-0.1,0.3l-0.3,0l0.6,-1.3zm-0.1,0.8l0,0l0.4,0l-0.2,-0.4l0,0l-0.2,0.4z" id="svg_153"/>
    <polygon fill="#ffffff" class="st3" points="43.30000305175781,57.5 43.099998474121094,57.5 42.900001525878906,56.599998474121094 42.900001525878906,56.599998474121094 42.599998474121094,57.5 42.400001525878906,57.5 42,56.19999694824219 42.30000305175781,56.19999694824219 42.5,57.099998474121094 42.5,57.099998474121094 42.69999694824219,56.19999694824219 43,56.19999694824219 43.19999694824219,57.099998474121094 43.19999694824219,57.099998474121094 43.400001525878906,56.19999694824219 43.69999694824219,56.19999694824219 " id="svg_154"/>
    <path fill="#ffffff" class="st3" d="m43.7,57.3l0.3,0l0,0.3c0,0.2 -0.1,0.3 -0.3,0.3l0,-0.1c0.1,0 0.2,-0.1 0.1,-0.2l-0.2,0l0.1,-0.3l0,0z" id="svg_155"/>
    <path fill="#ffffff" class="st3" d="m45.1,56.2l0.3,0l0.4,1.3l-0.3,0l-0.1,-0.3l-0.5,0l-0.1,0.3l-0.3,0l0.6,-1.3zm-0.1,0.8l0,0l0.4,0l-0.2,-0.4l0,0l-0.2,0.4z" id="svg_156"/>
    <polygon fill="#ffffff" class="st3" points="45.900001525878906,56.19999694824219 46.19999694824219,56.19999694824219 46.69999694824219,57.099998474121094 46.69999694824219,56.19999694824219 47,56.19999694824219 47,57.5 46.69999694824219,57.5 46.19999694824219,56.599998474121094 46.19999694824219,56.599998474121094 46.19999694824219,57.5 45.900001525878906,57.5 " id="svg_157"/>
    <path fill="#ffffff" class="st3" d="m47.3,56.2l0.5,0c0.4,0 0.6,0.2 0.6,0.6c0,0.4 -0.2,0.6 -0.6,0.6l-0.5,0l0,-1.2zm0.2,1.1l0,0l0.3,0c0.2,0 0.4,-0.1 0.4,-0.4s-0.1,-0.4 -0.4,-0.4l-0.2,0l-0.1,0.8l0,0z" id="svg_158"/>
    <polygon fill="#ffffff" class="st3" points="49.400001525878906,56.5 49,56.5 49,56.19999694824219 50.100006103515625,56.19999694824219 50.100006103515625,56.5 49.69999694824219,56.5 49.69999694824219,57.5 49.400001525878906,57.5 " id="svg_159"/>
    <polygon fill="#ffffff" class="st3" points="50.19999694824219,56.19999694824219 50.5,56.19999694824219 50.5,56.69999694824219 51,56.69999694824219 51,56.19999694824219 51.30000305175781,56.19999694824219 51.30000305175781,57.5 51,57.5 51,57 50.5,57 50.5,57.5 50.19999694824219,57.5 " id="svg_160"/>
    <polygon fill="#ffffff" class="st3" points="51.600006103515625,56.19999694824219 52.5,56.19999694824219 52.5,56.5 51.80000305175781,56.5 51.80000305175781,56.69999694824219 52.399993896484375,56.69999694824219 52.399993896484375,57 51.80000305175781,57 51.80000305175781,57.30000305175781 52.5,57.30000305175781 52.5,57.5 51.600006103515625,57.5 " id="svg_161"/>
    <path fill="#ffffff" class="st3" d="m53.2,56.2l0.6,0c0.4,0 0.4,0.2 0.4,0.4c0,0.2 -0.1,0.4 -0.4,0.4l-0.3,0l0,0.4l-0.4,0l0,-1.2l0.1,0zm0.3,0.6l0,0l0.2,0c0.1,0 0.3,0 0.3,-0.2s-0.1,-0.2 -0.3,-0.2l-0.2,0l0,0.4z" id="svg_162"/>
    <polygon fill="#ffffff" class="st3" points="54.399993896484375,56.19999694824219 55.399993896484375,56.19999694824219 55.399993896484375,56.5 54.69999694824219,56.5 54.69999694824219,56.69999694824219 55.30000305175781,56.69999694824219 55.30000305175781,57 54.69999694824219,57 54.69999694824219,57.30000305175781 55.399993896484375,57.30000305175781 55.399993896484375,57.5 54.399993896484375,57.5 " id="svg_163"/>
    <path fill="#ffffff" class="st3" d="m56.2,56.2c0.4,0 0.6,0.3 0.6,0.7c0,0.4 -0.3,0.7 -0.6,0.7c-0.4,0 -0.6,-0.3 -0.6,-0.7c-0.1,-0.4 0.2,-0.7 0.6,-0.7m0,1.1l0,0c0.3,0 0.4,-0.2 0.4,-0.4c0,-0.3 -0.1,-0.4 -0.4,-0.4c-0.3,0 -0.4,0.2 -0.4,0.4c0,0.2 0.1,0.4 0.4,0.4" id="svg_164"/>
    <path fill="#ffffff" class="st3" d="m57,56.2l0.6,0c0.4,0 0.4,0.2 0.4,0.4c0,0.2 -0.1,0.4 -0.4,0.4l-0.3,0l0,0.4l-0.3,0l0,-1.2l0,0zm0.2,0.6l0,0l0.3,0c0.1,0 0.3,0 0.3,-0.2s-0.1,-0.2 -0.3,-0.2l-0.3,0l0,0.4z" id="svg_165"/>
    <polygon fill="#ffffff" class="st3" points="58.19999694824219,56.19999694824219 58.5,56.19999694824219 58.5,57.30000305175781 59.100006103515625,57.30000305175781 59.100006103515625,57.5 58.19999694824219,57.5 " id="svg_166"/>
    <polygon fill="#ffffff" class="st3" points="59.30000305175781,56.19999694824219 60.19999694824219,56.19999694824219 60.19999694824219,56.5 59.5,56.5 59.5,56.69999694824219 60.100006103515625,56.69999694824219 60.100006103515625,57 59.5,57 59.5,57.30000305175781 60.19999694824219,57.30000305175781 60.19999694824219,57.5 59.30000305175781,57.5 " id="svg_167"/>
    <path fill="#ffffff" class="st3" d="m60.9,55l-42,0l0,3.9l42.3,0l0,-3.9l-0.3,0zm-0.1,3.4l0,0l-41.5,0l0,-3l41.4,0l0.1,3l0,0z" id="svg_168"/>
    <path fill="#ffffff" class="st3" d="m66.1,44.6l0,0c0,-0.2 -0.2,-0.4 -0.3,-0.4c-0.2,-0.3 -0.4,-0.5 -1,-1.1l-0.6,-0.6c-0.8,-0.8 -1.1,-1.7 -1.1,-2.6l0.2,-0.4c0.4,-0.8 1,-1.8 0.9,-3.3c-0.1,-1.5 -0.9,-3.2 -2.4,-5.1c-0.3,-0.4 -0.5,-0.5 -0.8,-0.7c0.1,-0.2 0.2,-0.4 0.2,-0.4c0.3,-0.5 0.6,-1.3 0.6,-2.3c0,-0.4 -0.1,-0.9 -0.3,-1.3c-0.7,-1.9 -2.5,-2.4 -3.3,-2.5c-1.1,-0.1 -2.3,0.4 -2.8,0.6c-0.4,0.2 -1.1,0.5 -1.5,0.8l-0.5,0.3l-0.3,0.1c-0.4,0.2 -1.1,0.5 -1.7,1.1c-0.5,0.7 -0.7,1.4 -0.7,1.7c0,0.1 0,0.2 0,0.3l-0.2,0.5l-0.1,0.3c-0.1,0.3 -0.3,0.6 -0.3,0.8c-0.1,0.2 -0.2,0.4 -0.2,0.7c0,0.2 0.1,0.5 0.3,0.6c0.1,0.1 0.2,0 0.3,0c0,0 0.1,-0.1 0.2,-0.2l0,0l0.1,-0.1l0.4,-0.4c0.3,-0.2 0.9,-0.7 1.3,-1.3c0.2,-0.1 1,-0.3 1.4,-0.8l0.5,-0.9l0.5,-0.8c0.3,-0.4 1.3,-1.4 2.9,-1.4c0.9,0 1.3,0.4 1.5,0.7c0.2,0.3 0.3,0.5 0.3,0.7c0,0.1 0,0.1 0,0.1c-0.1,0.4 -0.3,1.1 -1.7,1.8c-0.3,-0.5 -0.6,-1.1 -1.3,-1.4c-0.9,-0.4 -1.6,-0.2 -2.1,0.4c-0.7,0.6 -0.9,1.3 -0.5,1.8c0.2,0.3 0.4,0.3 0.6,0.3c0,0.2 -0.1,0.4 -0.2,0.5c-0.9,0.4 -1.3,0.6 -1.7,0.9l-0.1,0.1c-0.7,0.5 -2.5,1.8 -2.7,3.9c-0.1,0.4 -0.1,0.8 -0.1,1.1c0,0.4 0,0.7 0.1,1.1l-0.1,-0.1c0,-0.3 -0.2,-0.6 -0.4,-0.9c-0.3,-0.4 -1,-0.1 -1.1,-0.1l-0.2,0.2l0.3,0.2l0.1,0.1l0.1,0.3c0.1,0.1 0.1,0.3 0.1,0.4l0,0.1c-0.1,0 -0.3,0 -0.4,0l-0.1,0c-0.4,0 -0.6,0.5 -0.6,0.6l0.2,0.1c0,0 0.2,0.1 0.4,0.1c0.2,0.1 0.4,0.8 0.5,1.1l0,0.1c0.1,0.3 0.1,1.1 -0.1,2.6l0,0.3c0,0.2 -0.2,0.4 -0.2,0.4l-0.4,0.3l0.4,0c0.4,0 0.8,-0.1 1.1,-0.3c0.2,-0.2 0.3,-0.5 0.3,-0.7c0,-0.1 0,-0.2 0,-0.2s0.1,0.1 0.1,0.2c0.2,0.4 0.6,1.1 0.8,1.3c-0.2,0.2 -0.2,0.4 -0.2,0.6c0,0.1 0,0.2 0,0.3l0.1,0.2l0.2,-0.1c0.3,-0.1 1.1,0.4 1.7,0.8c0.5,0.4 1.2,0.5 2.2,0.5c0.5,1.1 1.2,2.1 1.4,2.2c0.1,0.1 0.3,0.4 0.3,0.6l0.1,0.4c0,0 0.2,-0.4 0.3,-0.4c0.1,0 0.2,0 0.2,0c0.2,0.2 0,1.7 -0.1,2c0.1,0 0.3,0.1 0.4,0.1c0.2,-0.5 0.3,-2.2 0,-2.5l-0.4,-0.2l-0.1,0c-0.1,-0.2 -0.2,-0.4 -0.3,-0.5c-0.2,-0.2 -1,-1.1 -1.4,-2.2l-0.1,-0.1l0,0c-0.9,0 -1.6,-0.2 -2,-0.4c-0.8,-0.5 -1.4,-0.9 -1.8,-0.9l0,0c0,-0.2 0,-0.4 0.2,-0.4l0.2,-0.1l-0.2,-0.2c0,0 -0.7,-1 -0.9,-1.4c-0.2,-0.4 -0.4,-0.5 -0.6,-0.5c-0.1,0 -0.3,0.2 -0.3,0.4l0,0.1l0,0.1c0,0.1 0,0.2 0,0.3c0,0.2 0,0.4 -0.2,0.4c-0.1,0.1 -0.2,0.1 -0.4,0.2c0,-0.1 0.1,-0.2 0.1,-0.3l0,-0.3c0.1,-0.8 0.2,-1.5 0.2,-2.1c0,-0.4 0,-0.5 -0.1,-0.7l0,-0.1c-0.4,-0.9 -0.5,-1.2 -0.8,-1.2l0,0l0,0l0.2,0c0.1,0 0.4,0 0.4,0l0.3,0.2l0,-0.4c0,-0.1 0,-0.2 0,-0.4c0,-0.2 0,-0.4 -0.1,-0.6l-0.1,-0.2c0,0 0,-0.1 -0.1,-0.1c0.1,0 0.2,0 0.3,0c0.2,0.3 0.3,0.6 0.3,0.7l0,0.1l0,0.1c0.1,0.1 0.2,0.2 0.3,0.3c0,0.2 -0.1,0.9 -0.1,0.9c0,0.1 0,0.1 0,0.2c0,0.4 0.1,1 0.3,1.6c0.2,0.7 0.7,1.6 0.9,1.8s0.4,0.3 0.4,0.3l0.3,-0.1l0.2,-0.4l0,-0.5l0,0l0,0.1l-0.1,-0.6l-0.2,-0.7l0,0l-0.6,-1.3l-0.2,-0.4c-0.3,-0.7 -0.6,-1.6 -0.4,-3.2c0.3,-1.8 1.9,-3.2 2.5,-3.6l0.1,-0.1c0.3,-0.2 0.7,-0.4 1.6,-0.8l1.8,-0.8l0.6,-0.3l0.9,-0.4c1.6,-0.8 1.9,-1.6 2,-2.2c0.1,-0.3 0,-0.7 -0.4,-1.1c-0.3,-0.4 -0.8,-0.8 -1.8,-0.9c-1.8,-0.1 -2.8,1.1 -3.2,1.5l-0.5,0.8l-0.5,0.8c-0.4,0.4 -1.2,0.6 -1.2,0.6l-0.3,0l-0.1,0.1c-0.4,0.6 -1.1,1.1 -1.2,1.3l-0.4,0.4c0,0 0,0 0,0.1l0,-0.1c0,-0.2 0.1,-0.4 0.2,-0.5c0.1,-0.1 0.2,-0.4 0.4,-0.9l0.1,-0.3l0.2,-0.6l0,-0.1c0,0 0,-0.1 0,-0.2c0,-0.3 0.1,-0.8 0.6,-1.5c0.4,-0.5 1.1,-0.9 1.5,-1.1l0.3,-0.2l0.5,-0.4c0.4,-0.3 1.1,-0.6 1.5,-0.8c0.6,-0.3 1.7,-0.6 2.6,-0.5c0.9,0.1 2.4,0.4 3.1,2.2c0.5,1.4 0,2.5 -0.4,3.2l-0.1,0.3c-0.6,-0.3 -1.2,-0.1 -1.6,0c-0.6,0.2 -1.4,0.4 -1.8,0.8c-0.6,0.4 -0.8,1.1 -0.8,1.7c0,0.4 0.1,0.6 0.1,0.8c0.1,0.4 0.4,0.6 0.6,0.7c-0.1,0.1 -0.2,0.2 -0.2,0.4c-0.1,0.2 -0.1,0.3 -0.1,0.4c-0.5,-0.2 -1.3,-0.3 -2,-0.3l-0.4,0c0,0 -0.2,0 -0.2,0.2s0.2,0.3 0.2,0.3l0.4,0c0.7,0 1.8,0.1 2.1,0.4l0.4,0.4l-0.1,-0.5c0,0 0,-0.3 0.1,-0.4c0.2,-0.3 0.3,-0.4 0.3,-0.4l0.2,-0.3l-0.3,-0.1c0,0 -0.5,-0.2 -0.6,-0.6c0,-0.2 -0.3,-1.5 0.5,-2c0.4,-0.3 1.1,-0.6 1.7,-0.7c0.6,-0.2 1.5,-0.4 2.3,0.8c1.5,1.8 2.2,3.4 2.3,4.8c0,0.1 0,0.3 0,0.4c0,1.3 -0.4,2.1 -0.9,2.8l-0.3,0.5c-0.4,0.8 -1.7,3.8 -2.4,7.5l0,0.1c-0.1,0.4 -0.1,0.6 -0.2,0.8c-0.6,-0.5 -4.4,-4.7 -4.8,-6.5l0,-0.1l-0.1,0c-0.1,-0.1 -1.4,-1.2 -1.4,-3.2c0,-0.4 0.1,-0.8 0.2,-1.2c0,0 0.1,-0.2 -0.2,-0.2c-0.2,-0.1 -0.3,0.1 -0.3,0.1c-0.1,0.4 -0.2,0.9 -0.2,1.2c0,2.1 1.3,3.3 1.5,3.5c0.4,1.2 1.8,3.2 3.2,4.7l0,0.1c-0.1,0.4 -0.1,0.7 -0.1,0.9l0,0.2c0,0.3 -0.2,0.8 -0.3,1l0,0.1l0,0.1c0,0.1 0,0.2 0,0.4c0,0.6 0.2,1.8 0.2,1.9c0.1,0.4 0.5,0.7 0.5,0.7c0.2,0.1 0.1,-0.3 0.3,-0.2c-0.1,-0.1 -0.3,-0.4 -0.4,-0.5c-0.1,-0.3 -0.3,-1.4 -0.3,-1.9c0,-0.1 0,-0.2 0,-0.2l0.1,-0.2c0.1,-0.4 0.3,-0.8 0.3,-1.1l0,-0.2c0,-0.1 0,-0.1 0,-0.2s0,-0.3 0,-0.4c0.8,0.9 1.4,1.6 1.5,1.7c0.1,0.1 0.3,0.1 0.3,0c0.2,-0.1 0.3,-0.4 0.4,-1.1c0.4,0 1,0 1.2,0c0.1,0.4 0.3,1.4 0.7,1.9c0.4,0.4 0.9,0.6 1.5,0.4c0.5,-0.2 1,-1 1,-1.8c0,-0.2 0,-0.3 0,-0.4c-0.2,-0.7 -0.7,-1.7 -1.2,-2.4c1,0 1.8,-0.2 2.1,-0.4c0.2,-0.2 0.3,-0.3 0.3,-0.4m-15.8,-5.5l0,0l0.2,0.4c0,0 0.5,1.1 0.6,1.3c0,0.1 0.1,0.7 0.1,0.7l0.1,0.6l0,0.1l0,0.2l0,0.1c0,0 -0.1,-0.1 -0.2,-0.2c-0.1,-0.2 -0.6,-1 -0.8,-1.6c-0.2,-0.6 -0.3,-1.1 -0.3,-1.5c0,0 0,-0.1 0,-0.2c0,0 0,-0.4 0,-0.6c0.2,0.3 0.2,0.5 0.3,0.7m6.5,-9.2l0,0l-0.6,0.3l-1.4,0.5c0.1,-0.2 0.1,-0.4 0.1,-0.5c0,-0.1 0,-0.1 0,-0.1l0,-0.3l-0.3,0.2c0,0 -0.2,0.1 -0.4,-0.1c-0.3,-0.3 0.1,-0.8 0.5,-1.2c0.4,-0.4 1,-0.5 1.7,-0.3c0.4,0.2 0.8,0.6 1.1,1.2c-0.3,0.1 -0.7,0.3 -0.7,0.3m6.7,14.9l0,0l-0.5,0l0.3,0.4c0.6,0.7 1.2,1.8 1.4,2.5c0.2,0.9 -0.4,1.8 -0.7,1.8c-0.4,0.1 -0.8,0 -1.1,-0.4c-0.4,-0.4 -0.5,-1.5 -0.6,-1.8l0,-0.2l-0.2,0c0,0 -0.7,0 -1.3,0c0.5,-2.9 1.5,-5.4 2,-6.7c0.1,0.8 0.4,1.6 1.1,2.3l0.6,0.6c0.5,0.6 0.9,0.9 1,1.1l0,0l0,0l0.1,0.1c-0.2,0.2 -1.1,0.4 -2.1,0.3" id="svg_169"/>
    <path fill="#ffffff" class="st3" d="m41,51.7c0.5,0.3 0.8,0.2 0.8,0.2c0.1,-0.2 0,-0.8 0,-0.8c-0.3,0.3 -0.6,0 -0.6,0c0.1,0.6 -0.2,0.6 -0.2,0.6m-10,-15.4l0,0l0.4,0l0,-0.7c0,-3.4 0,-5.9 0,-6.6l8.8,0l8.8,0c0,0.7 0,3.2 0,6.6l0,0.8l0.4,0c0,-4.5 0,-7.4 0,-7.4l0,-0.2l-0.4,0l-8.9,0l-9.1,0l0,0.2c0,0 0,2.9 0,7.3m16.1,11l0,0l0,-1.6c0,0 0,-0.1 0.2,-0.2l0,0l0,-0.1c-0.2,-0.4 -0.4,-1 -0.4,-1l-0.2,-3.4c0,-0.4 0.3,-0.7 0.4,-0.8l0,-1l-0.1,-0.1l-0.3,0c-0.1,0 -0.1,0 -0.1,0l0,0.1l-0.1,0l-0.2,0l-0.1,0l0,-0.1l-0.4,0l0,0.4l-0.4,0l0,-0.1l0,-0.4l-0.4,0l0,0.1l-0.1,0l-0.2,0l-0.1,0l0,-0.1c0,0 0,-0.1 -0.1,-0.1l-0.3,0c-0.1,0 -0.1,0.1 -0.1,0.1l0,1c0,0.1 0.3,0.4 0.3,0.4l-0.4,0l0,0l0,0.4l-0.7,0l0,0.2l0,-0.4l-0.6,0l-0.1,0l0,0.4l-0.7,0l0,0l0,-1.6c0,-0.3 0.3,-0.9 0.3,-0.8l0,-1.1c0,-0.2 -0.2,-0.2 -0.1,-0.2l-0.6,0c-0.1,0 -0.1,0.1 -0.1,0.1l0,0.4l-0.3,0l0,-0.4c0,-0.1 -0.1,-0.1 -0.1,-0.1l-0.5,0l0,0.5l-0.7,0l0,-0.1l0,-0.4l-0.5,0c0,0 -0.1,0 -0.1,0.1l0,0.4l-0.2,0l0,-0.4c0,0 0,-0.1 -0.1,-0.1l-0.6,0c0,0 -0.2,0.1 -0.2,0.2l0,1c0,0 0.3,0.6 0.3,0.9l0,1.7l-0.7,0l0,-0.1l0,-0.4l-0.1,0l-0.6,0l0,0.4l-0.7,0l0,0l0,-0.4l-0.3,0l-0.2,0l0.3,-0.4l0,-1l-0.1,-0.1l-0.3,0c-0.1,0 -0.1,0 -0.1,0l0,0.1l-0.1,0l-0.2,0l-0.1,0l0,-0.1l-0.4,0l0,0.4l-0.4,0l0,-0.1l0,-0.4l-0.4,0l0,0.1l0,0l-0.2,0l-0.1,0l0,-0.1c0,0 0,-0.1 -0.1,-0.1l-0.3,0c-0.1,0 -0.1,0.1 -0.1,0.1l0,1c0.1,0.1 0.4,0.5 0.4,0.8l0,0l-0.2,3.4c0,0 -0.2,0.6 -0.4,1c0,0.1 0,0.1 0,0.2c0.2,0 0.2,0.1 0.2,0.2l0,1.6l2.7,0l0,-0.4l1.3,0c0,-0.2 0,-1.1 0,-1.1l0,0l1.1,0l0,0.4l-0.2,0l0.4,0.6l0.4,-0.6l-0.2,0l0,-0.4l1.1,0l0,0.4l-0.2,0l0.4,0.6l0.4,-0.6l-0.2,0l0,-0.4l1.1,0l0,0.4l-0.2,0l0.4,0.6l0.4,-0.6l-0.2,0l0,-0.4l1.2,0l0,0c0,0 0,1 0,1.1l1.3,0l0,0.4l2.9,0.1l0,0zm-8.5,-2l0,0l-1,0c0.1,-0.3 0.3,-0.5 0.5,-0.9l0.4,0l0,0.9l0.1,0zm0,-1.3l0,0l-0.2,0c0.1,-0.1 0.1,-0.1 0.2,-0.2l0,0.2zm1.4,1.3l0,0l-1.1,0l0,-0.9l1.1,0l0,0.9zm0,-1.3l0,0l-1.1,0l0,-0.4c0.3,-0.2 0.7,-0.4 1.1,-0.4l0,0.8zm1.5,1.3l0,0l-1.1,0l0,-0.9l1.1,0l0,0.9zm0,-1.3l0,0l-1.1,0l0,-0.9c0.4,0.1 0.8,0.2 1.1,0.4l0,0.5zm0.3,-0.2l0,0c0.1,0.1 0.2,0.2 0.3,0.3l-0.3,0l0,-0.3zm0,1.5l0,0l0,-0.9l0.5,0c0.3,0.4 0.4,0.6 0.5,0.9l-1,0zm0.2,4.3l0,0c-0.1,-0.2 -0.6,0 -0.7,0.1l-0.3,0l-0.2,-0.2c0,-0.1 0,-0.2 0,-0.2c0,-0.1 0.2,-0.1 0.3,-0.2c0.2,0 0.6,-0.2 0.6,-0.4c0,-0.2 -0.2,-0.5 -0.4,-0.7s-0.6,-0.3 -0.8,-0.3c-0.2,0.1 -0.2,0.5 -0.2,0.7c0,0.1 0,0.2 -0.1,0.3c-0.1,0.1 -0.1,0.1 -0.2,0.1l-0.2,-0.1l0,-0.3c0,-0.2 0.1,-0.6 -0.2,-0.7c-0.2,-0.1 -0.5,0 -0.8,0.3c-0.3,0.2 -0.5,0.5 -0.5,0.7c0,0.2 0.4,0.4 0.6,0.4l0.3,0.1l0,0.2c0,0.1 -0.1,0.1 -0.2,0.2c-0.1,0 -0.2,0 -0.3,0c-0.1,-0.1 -0.6,-0.3 -0.7,-0.1c-0.1,0.2 -0.2,0.5 0,0.9c0.1,0.4 0.4,0.6 0.5,0.7c0.2,0.1 0.4,-0.4 0.5,-0.4s0.1,-0.2 0.3,-0.2c0.1,0 0.2,0 0.2,0.1l0.1,0.2l-0.1,0.3c-0.1,0.1 -0.4,0.4 -0.4,0.5l0,0.1c0.1,0.2 0.4,0.3 0.8,0.3l0,0c0.4,0 0.7,-0.2 0.8,-0.3l0,-0.1c0,-0.2 -0.2,-0.4 -0.4,-0.5l-0.1,-0.3l0.1,-0.2c0.1,-0.1 0.1,-0.1 0.2,-0.1s0.2,0.1 0.2,0.2c0.1,0.2 0.4,0.5 0.5,0.4s0.4,-0.4 0.5,-0.7c0.5,-0.4 0.4,-0.8 0.3,-0.8m-1.5,0.7l0,0c-0.3,0.2 -0.7,0.2 -1,-0.2c-0.2,-0.3 -0.2,-0.7 0.2,-1c0.3,-0.2 0.7,-0.2 1,0.2c0.2,0.3 0.1,0.8 -0.2,1m-7.5,-13l0,0c0.1,-0.1 0.2,-0.2 0.3,-0.3c0.1,0 0.3,0 0.4,0c0.2,0 1.4,-0.6 2,-0.9l0,0c0.3,0.4 0.6,0.9 1,1.1c0.5,0.3 0.7,0.2 0.8,0s-0.1,-0.4 -0.4,-0.6c-0.3,-0.1 -0.5,-0.4 -0.8,-0.6l0,0c0.4,-0.2 0.9,-0.4 1.6,-0.8l-0.1,0c0,0 0,-0.1 -0.1,-0.1c-0.1,-0.1 -0.1,-0.3 -0.1,-0.4c0,0 0,0 0,-0.1l0,-0.2c0,0 0,-0.2 -0.1,-0.4c-0.7,0.4 -1.4,0.6 -1.8,0.8l0,0c-0.1,-0.4 -0.1,-0.7 0,-1c0.1,-0.4 0,-0.7 -0.3,-0.8c-0.2,0 -0.4,0.1 -0.5,0.6c-0.1,0.4 0.1,1 0.2,1.4l0,0c-0.6,0.3 -1.8,1 -1.9,1.1c-0.1,0.1 -0.2,0.2 -0.3,0.3c-0.1,0 -0.3,0 -0.4,0.1c-0.3,0.1 -0.4,0.4 -0.3,0.5c0.3,0.4 0.5,0.4 0.8,0.3m3.5,-5.9l0,0c-0.1,-0.3 -0.3,-0.1 -0.3,-0.1c-0.3,-0.4 -0.8,-0.5 -0.8,-0.5c-0.1,-0.1 -0.2,-0.2 -0.3,-0.3c-0.1,-0.4 -0.3,-0.7 -0.6,-0.9c-0.5,-0.3 -1.1,0 -1.5,0.6c0,-0.1 -0.1,-0.1 -0.2,-0.1c-0.2,-0.1 -0.4,0 -0.4,0.2c-0.1,0.2 0,0.4 0.2,0.4c0.1,0 0.1,0 0.2,0c-0.2,0.6 0.1,1.3 0.6,1.5c0.4,0.2 0.8,0.1 1.1,-0.2c0.1,0.1 0.3,0.1 0.4,0.1c0,0 0.4,0.3 0.9,0.3c0,0 0,0.3 0.3,0.2c0,0 0.4,0.4 0.8,0.3c0,0 0.2,0.1 0.4,0.2c0,-0.1 0.1,-0.3 0.1,-0.3c0.2,-0.3 0.4,-0.4 0.6,-0.6c-0.4,-0.2 -0.6,-0.3 -0.6,-0.3c-0.5,-0.6 -0.9,-0.5 -0.9,-0.5m-2.2,-0.4l0,0c-0.2,0 -0.3,-0.3 -0.1,-0.4c0,0 -0.3,-0.2 -0.4,0.2c0,0 -0.2,-0.2 -0.4,-0.1c0,0.3 0.4,0.3 0.4,0.3c-0.3,0.3 0.1,0.4 0.1,0.4c0,-0.2 0.3,-0.3 0.4,-0.2c0.1,0.1 0,0.4 -0.1,0.5c-0.2,0.2 -0.4,0.2 -0.6,0.1c-0.4,-0.2 -0.4,-0.6 -0.2,-1.1c0.2,-0.4 0.6,-0.7 1,-0.6c0.2,0.1 0.3,0.3 0.4,0.5c-0.2,0.2 -0.3,0.4 -0.5,0.4m8.3,1.6l0,0l0,0c2.3,-1.1 4.2,-2 4.5,-2.1c0.4,-0.2 0.7,-0.7 0.7,-0.7s-0.5,-0.1 -1,0.1c-0.2,0.1 -2.4,1.1 -4.7,2.1c0.2,0.3 0.3,0.5 0.5,0.6m19.1,20.7l0,0c-0.4,-0.4 -1.1,-0.7 -1.4,-1.1c-0.2,-0.2 -0.7,-0.4 -1.3,-0.5c0,0 0,0 -0.1,0c-0.2,-0.1 -0.4,-0.2 -0.8,-0.3c0.2,0.4 0.9,1.1 1.3,1.3c0.3,0.2 0.2,0.4 0.2,0.4c0,0 -0.4,-0.3 -0.7,-0.3c-0.4,0 -0.8,-0.1 -1.3,0.2c-0.5,0.4 -0.9,0.4 -1,0.9c-0.1,0.3 -0.1,0.4 -0.1,0.4s-0.4,-0.4 -0.4,-0.8c0,0 -0.8,-0.5 -1.3,-0.6c-0.4,-0.1 -1,0.1 -1.1,0.4c0,0 -0.1,-0.5 0.3,-0.8c0.2,-0.2 0.4,-0.4 0.4,-0.4s-0.3,-0.2 -0.4,-0.1c0,0 0.1,-0.4 0.3,-0.5c0.3,0 1.2,0 1.6,0s1.1,-0.2 1.2,-0.6l0,0.1c-0.2,0 -0.4,-0.1 -0.4,-0.1c-0.3,-0.1 -0.4,-0.1 -0.5,-0.2c-0.7,-0.4 -2,-0.4 -2.7,-0.4l-0.2,-0.1l0,-1.5l-0.3,0c-1,-0.1 -2.2,0 -3,0.6l-0.1,0l0,0c-0.6,-0.2 -1.3,-0.3 -2.4,-0.5c0,0 -0.3,-0.1 -0.4,-0.2c1,-1.3 1.8,-2.9 2,-4.9l-0.4,0c-0.8,6 -6.9,8.7 -8.7,9.1c-1.8,-0.4 -8.1,-3.1 -8.8,-9.5l-0.2,0c0.2,2.2 1.1,4 2.2,5.4c-0.9,0.1 -2.1,0.4 -2.5,0.5c-0.2,0 -0.3,0.1 -0.4,0.2l-0.1,0c-0.7,-0.8 -2.2,-1 -3.2,-0.9l-0.2,0l0,1.8c-0.8,0 -1.5,0 -1.8,0c-0.3,0 -0.8,0.3 -1.3,0.4c0.2,0.1 0.5,0.2 0.7,0.2l1.7,0c0.4,0 0.5,0.4 0.5,0.8c0,0 0,0.3 0.1,0.5c0.1,0.3 0.2,0.4 0.2,0.6c0,0.1 0,0.1 0,0.1l-0.2,0.5l-0.4,-0.4c-0.1,-0.1 -0.4,-0.2 -0.7,-0.2c-0.3,0 -0.7,0.3 -1.1,0.4c-0.1,0.4 -0.4,0.7 -0.4,0.8l-0.4,0.4l-0.3,-1c-0.1,-0.3 -0.3,-0.4 -0.7,-0.6l0,0.1c-0.4,-0.2 -0.6,-0.2 -0.9,-0.2l-0.4,0c-0.2,0 -0.4,0.2 -0.4,0.2l-0.3,0.3l-0.2,-0.4c-0.2,-0.4 -0.1,-0.6 0.3,-0.9c0.2,-0.1 0.4,-0.3 0.4,-0.4l-0.1,0c-0.4,0.1 -1.6,0.8 -2.3,1.1c-0.7,0.3 -1.7,0.8 -1.6,1.1c0.1,0.4 0.8,1.5 1.7,1.8c0.1,0 0.2,0.1 0.3,0.1l0,-0.7l4.6,0c2.5,-0.5 5.3,-1.4 5.4,-2.6c0,0 -0.9,-0.4 -1.8,-0.4l0,-1.6l0,0c0,-0.4 0,-1.1 0,-1.4c0.8,-0.1 1.8,0.1 2.5,0.6l0,0c0.1,0.1 0.4,0.4 0.4,0.7l0,4.5c0,0 -0.1,0.1 -0.2,0.3l3.1,0l0,0l16.8,0l0,0l0.1,0l0.2,0c-0.1,-0.2 -0.2,-0.3 -0.2,-0.3l0,-4.5c0,-0.2 0.1,-0.4 0.2,-0.4c0.6,-0.5 1.8,-0.7 2.6,-0.7c0,0.2 0,0.6 0,1l0,0l0,1.9c-1,-0.1 -1.8,0.4 -1.8,0.4c0.3,1.2 3,2.2 5.4,2.6l4.6,0l0,1.1c0.1,-0.1 0.3,-0.2 0.4,-0.2l0,0c0.6,-0.3 1.1,-1.1 1.1,-1.5c0,-0.3 -0.4,-0.8 -0.9,-1.1m-14.1,-15.9l0,0c0.1,0 0.3,-0.2 0.3,-0.2c0,-0.1 0,-0.2 0,-0.4c-0.3,-0.7 -1.1,-0.7 -1.1,-0.7c-0.1,-0.2 -0.4,-0.1 -0.4,-0.1c-0.7,-0.7 -1.6,-0.9 -1.6,-0.9c-0.3,-0.3 -0.5,-0.1 -0.5,-0.1c-0.6,-0.3 -1.2,-0.5 -1.8,-0.9c0,0.1 -0.1,0.3 -0.1,0.3c0,0.1 0,0.1 0,0.1l0,0.1c0,0.1 0,0.3 -0.1,0.4c0.6,0.3 1.1,0.5 1.7,0.8c0,0 0.1,0.4 0.4,0.3c0,0 0.7,0.5 1.7,0.6c0,0 0.1,0.3 0.3,0.2c-0.1,0 0.5,0.6 1.2,0.5m-9.2,13.7l0,0c-0.1,0.6 0,0.8 0,0.8c0.2,0 0.7,-0.3 0.7,-0.3c-0.4,-0.2 -0.2,-0.5 -0.2,-0.5c-0.3,0.4 -0.5,0 -0.5,0m1.7,-3.1l0,0c0.2,-0.4 0.5,-0.4 0.5,-0.4c-0.3,-0.5 -0.5,-0.6 -0.5,-0.6c-0.2,0.1 -0.4,0.6 -0.4,0.6c0.3,-0.1 0.4,0.4 0.4,0.4m-2.7,0.8l0,0c0,0.2 0.4,0.6 0.4,0.6c0.1,-0.4 0.5,-0.4 0.5,-0.4c-0.4,-0.3 -0.2,-0.6 -0.2,-0.6c-0.5,0.3 -0.7,0.4 -0.7,0.4m4.9,0.8l0,0c0.4,-0.4 0.4,-0.7 0.4,-0.7c-0.2,-0.2 -0.7,-0.3 -0.7,-0.3c0.2,0.3 -0.2,0.5 -0.2,0.5c0.5,0.1 0.5,0.5 0.5,0.5m-4.8,-16.7l0,0c0,0 -0.1,0.2 0,0.2c0.1,0.1 0.1,0.1 0.2,0.2s0.3,1.1 0.3,1.1s0.1,0.3 0.1,0.3s0,0.2 0.1,0.3c0.1,0.1 0.2,0.1 0.2,0.1s0,0.1 0.2,0.1s0.8,-0.3 1.6,-0.3s1.4,0.3 1.6,0.3c0.2,0 0.2,0 0.2,-0.1c0,0 0.2,0 0.2,-0.1c0.1,-0.1 0.1,-0.3 0.1,-0.3s0,-0.2 0,-0.3c0,-0.1 0.2,-1.1 0.3,-1.1c0.1,-0.1 0.1,-0.1 0.2,-0.2s0,-0.2 0,-0.2c-0.7,-0.9 -1.7,-1.1 -2.3,-1.2l-0.1,-0.2l0.3,0.1l0,-0.4l-0.3,0.1l0.1,-0.3l-0.4,0l0.1,0.3l-0.3,-0.1l0,0.4l0.3,-0.1l-0.1,0.2c-0.9,0 -1.9,0.3 -2.6,1.2m2.6,0.2l0,0l0.2,-0.4l-0.2,0c0.1,-0.2 0.2,-0.4 0.2,-0.5s0.1,-0.1 0.2,-0.1s1,0.3 1.3,0.9c0.1,0.1 -0.1,0.6 -0.4,0.6c-0.2,0.1 -0.4,0 -0.4,-0.1c0,-0.2 0.3,-0.3 0.4,-0.1c0,0 0.2,-0.3 -0.3,-0.3c0,0 0.2,-0.2 0,-0.4c-0.2,0.1 -0.3,0.4 -0.3,0.4c-0.3,-0.2 -0.4,0.1 -0.4,0.1c0.2,-0.1 0.4,0.2 0.3,0.3c0,0 -0.1,0.1 -0.4,0.1c-0.1,0 -0.2,0 -0.3,-0.1l-0.1,-0.3l0.4,0.2l0,-0.4l-0.2,0.1zm-0.3,0.1l0,0l-0.4,-0.2l0,0.5l0.4,-0.2l-0.1,0.3c-0.1,0.1 -0.2,0.1 -0.3,0.1c-0.3,0 -0.4,-0.1 -0.4,-0.1c-0.1,-0.1 0.1,-0.4 0.3,-0.3c0,0 -0.1,-0.4 -0.4,-0.1c0,0 0,-0.4 -0.3,-0.4c-0.2,0.2 0,0.4 0,0.4c-0.4,0 -0.3,0.3 -0.3,0.3c0.1,-0.2 0.4,-0.1 0.4,0.1c0,0.1 -0.3,0.2 -0.4,0.1s-0.4,-0.6 -0.4,-0.6c0.4,-0.6 1.1,-0.8 1.3,-0.9c0.1,0 0.2,0 0.2,0.1c0,0.1 0.1,0.4 0.2,0.5l-0.2,0l0.4,0.4z" id="svg_170"/>
    <path fill="#ffffff" class="st3" d="m40,2.5c-20.8,0 -37.6,16.7 -37.6,37.5s16.8,37.5 37.5,37.5s37.5,-16.8 37.5,-37.5c0.1,-20.8 -16.7,-37.5 -37.4,-37.5m0,67.7l0,0c-16.6,0 -30.2,-13.5 -30.2,-30.2c0,-16.6 13.5,-30.2 30.2,-30.2c16.6,0 30.2,13.5 30.2,30.2c-0.1,16.6 -13.6,30.2 -30.2,30.2" id="svg_171"/>
    <path fill="#ffffff" class="st3" d="m93.2,20.5l9.4,0l6.7,26.7l-7.5,0l-1.4,-6.8l-5,0l-1.4,6.8l-7.4,0l6.6,-26.7zm3,14.9l0,0l3.5,0l-1.2,-6.4c-0.1,-0.4 -0.2,-0.9 -0.3,-1.5c-0.1,-1 -0.2,-1.4 -0.2,-2.7c-0.1,1.2 -0.1,1.8 -0.3,2.7c-0.1,0.5 -0.2,1.1 -0.3,1.5l-1.2,6.4z" id="svg_172"/>
    <path fill="#ffffff" class="st3" d="m126.6,26c-1.2,-0.4 -2.1,-0.5 -3.1,-0.5c-3.6,0 -5.3,2.6 -5.3,8.7c0,5.8 1.7,8.3 5.3,8.3c1.2,0 2.4,-0.3 3.9,-1l0.6,5.1c-2.3,0.8 -4.2,1.1 -6.2,1.1c-7.2,0 -11.2,-5 -11.2,-13.7s4.1,-13.9 11.1,-13.9c1.9,0 3.9,0.4 5.8,1.1l-0.9,4.8z" id="svg_173"/>
    <polygon fill="#ffffff" class="st3" points="130.60000610351562,20.5 149.60000610351562,20.5 149.60000610351562,25.599998474121094 143.8000030517578,26.099998474121094 143.8000030517578,47.30000305175781 136.3000030517578,47.30000305175781 136.3000030517578,26.099998474121094 130.60000610351562,25.5 " id="svg_174"/>
    <path fill="#ffffff" class="st3" d="m92.1,51.7c-0.7,-0.4 -1.3,-0.7 -1.9,-0.7c-0.7,0 -1.4,0.4 -1.8,1.1s-0.5,1.6 -0.5,3c0,1.3 0.2,2 0.4,2.7c0.4,0.7 1,1.1 1.8,1.1c0.5,0 1,-0.1 1.4,-0.4l0,-3l-2,0l0,-1l3.3,0l0,4.7c-1.3,0.5 -2,0.7 -2.9,0.7c-2.5,0 -3.7,-1.6 -3.7,-4.8c0,-3.3 1.2,-5.1 3.6,-5.1c0.9,0 1.7,0.3 2.5,0.8l-0.2,0.9z" id="svg_175"/>
    <path fill="#ffffff" class="st3" d="m97.1,52.9c1.9,0 2.9,1.2 2.9,3.5c0,2.3 -1,3.5 -2.9,3.5s-2.9,-1.2 -2.9,-3.5c0,-2.3 1,-3.5 2.9,-3.5m-1.6,3.5l0,0c0,1.7 0.5,2.5 1.6,2.5c1,0 1.6,-0.9 1.6,-2.5c0,-1.7 -0.5,-2.5 -1.6,-2.5c-1,-0.1 -1.6,0.8 -1.6,2.5" id="svg_176"/>
    <path fill="#ffffff" class="st3" d="m101.7,52.9l1.5,5c0.1,0.2 0.1,0.4 0.2,0.9c0.1,-0.4 0.2,-0.7 0.2,-0.9l1.4,-4.8l1.3,0l-2.1,6.7l-1.6,0l-2.1,-6.7l1.2,-0.2z" id="svg_177"/>
    <path fill="#ffffff" class="st3" d="m107.9,56.8c0.1,1.3 0.9,2 2.1,2c0.4,0 0.9,-0.1 1.6,-0.4l0.3,1c-0.7,0.3 -1.4,0.4 -2,0.4c-2.1,0 -3.2,-1.3 -3.2,-3.6c0,-2.1 1.1,-3.4 2.8,-3.4s2.7,1.2 2.7,3.3c0,0.1 0,0.4 0,0.6l-4.3,0.1l0,0zm-0.1,-0.9l0,0l3,0l0,0c0,-1.3 -0.5,-2.1 -1.5,-2.1c-1,0 -1.5,0.8 -1.5,2.1" id="svg_178"/>
    <path fill="#ffffff" class="st3" d="m113.1,53.1l1.2,-0.1l0,0.5c0.5,-0.4 1,-0.6 1.7,-0.6l-0.2,1.2c-0.2,0 -0.3,0 -0.4,0c-0.4,0 -0.7,0.1 -1.1,0.4l0,5.3l-1.2,0l0,-6.7z" id="svg_179"/>
    <path fill="#ffffff" class="st3" d="m116.9,53.1l1.2,-0.2l0,0.6c0.7,-0.4 1.3,-0.6 1.9,-0.6c0.6,0 1.1,0.2 1.6,0.5c0.4,0.4 0.5,0.8 0.5,1.7l0,4.6l-1.2,0l0,-4.4c0,-0.3 0,-0.4 -0.1,-0.6c-0.1,-0.5 -0.5,-0.9 -1.1,-0.9c-0.4,0 -1,0.2 -1.5,0.6l0,5.3l-1.2,0l-0.1,-6.6l0,0z" id="svg_180"/>
    <path fill="#ffffff" class="st3" d="m123.6,53.1l1.2,-0.2l0,0.5c0.6,-0.4 1.1,-0.5 1.7,-0.5s1.1,0.2 1.4,0.5c0.1,0.1 0.2,0.2 0.3,0.4c0.7,-0.5 1.3,-0.8 2,-0.8c0.6,0 1.1,0.2 1.5,0.6c0.4,0.4 0.5,0.8 0.5,1.7l0,4.6l-1.2,0l0,-4.3c0,-0.3 0,-0.4 0,-0.6c-0.1,-0.5 -0.5,-0.9 -1.1,-0.9c-0.4,0 -0.9,0.2 -1.3,0.6l0,5.2l-1.2,0l0,-4.3c0,-0.4 0,-0.5 0,-0.6c-0.1,-0.5 -0.5,-0.9 -1.1,-0.9c-0.4,0 -0.8,0.2 -1.2,0.5l0,5.3l-1.2,0l-0.3,-6.8l0,0z" id="svg_181"/>
    <path fill="#ffffff" class="st3" d="m134.9,56.8c0.1,1.3 0.9,2 2.1,2c0.4,0 0.9,-0.1 1.6,-0.4l0.3,1c-0.7,0.3 -1.4,0.4 -2,0.4c-2.1,0 -3.2,-1.3 -3.2,-3.6c0,-2.1 1.1,-3.4 2.8,-3.4s2.7,1.2 2.7,3.3c0,0.1 0,0.4 0,0.6l-4.3,0.1l0,0zm-0.2,-0.9l0,0l3,0l0,0c0,-1.3 -0.5,-2.1 -1.5,-2.1c-0.9,0 -1.4,0.8 -1.5,2.1" id="svg_182"/>
    <path fill="#ffffff" class="st3" d="m140.1,53.1l1.2,-0.2l0,0.6c0.7,-0.4 1.3,-0.6 1.9,-0.6s1.2,0.2 1.6,0.5c0.4,0.4 0.5,0.8 0.5,1.7l0,4.6l-1.2,0l0,-4.4c0,-0.3 0,-0.4 -0.1,-0.6c-0.1,-0.5 -0.5,-0.9 -1.1,-0.9c-0.4,0 -1,0.2 -1.5,0.6l0,5.3l-1.2,0l-0.1,-6.6l0,0z" id="svg_183"/>
    <path fill="#ffffff" class="st3" d="m146.2,53.1l0.8,0l0,-1.1l1.2,-0.2l0,1.3l1.3,0l0,0.9l-1.3,0.1l0,3.9c0,0.3 0,0.4 0,0.4c0,0.3 0.3,0.4 0.6,0.4c0.2,0 0.4,0 0.7,-0.2l0,0.9c-0.4,0.1 -0.7,0.2 -1.1,0.2c-0.5,0 -1,-0.2 -1.1,-0.4c-0.2,-0.3 -0.3,-0.5 -0.3,-1.1l0,-4.4l-0.8,-0.1l0,-0.6l0,0z" id="svg_184"/>
   </g>
  </g>
  <defs>
   <style>.cls-1{fill:none;}.cls-2{fill:#f1f1f1;}</style>
  </defs>
  <g stroke="null" id="svg_21">
   <g stroke="null" transform="matrix(1.528612731559242,0,0,1.528612731559242,-3313.1680410441663,-645.145800554534) " id="svg_7">
    <g stroke="null" id="svg_8">
     <g stroke="null" id="svg_9">
      <g stroke="null" id="svg_10">
       <path stroke="null" stroke-width="0" id="svg_12" d="m2323.580283,440.133876l-1.59,0l0,7.09l1.59,0a3.38,3.38 0 0 0 3.44,-3.46a3.54,3.54 0 0 0 -3.44,-3.63z" class="cls-1"/>
       <path stroke="null" stroke-width="0" id="svg_13" d="m2345.730283,452.993876l0,-2.36a3.48,3.48 0 1 0 -7,0l0,2.36a3.48,3.48 0 1 0 7,0z" class="cls-1"/>
       <path stroke="null" stroke-width="0" id="svg_14" d="m2350.300283,452.993876l0,-2.36a8,8 0 1 0 -16.08,0l0,2.36a8,8 0 1 0 16.08,0zm-11.52,0l0,-2.36a3.48,3.48 0 1 1 7,0l0,2.36a3.48,3.48 0 1 1 -7,0z" class="cls-2"/>
       <path stroke="null" stroke-width="0" id="svg_15" d="m2356.380283,451.993876a2.33,2.33 0 0 0 2.32,-2.34a2.39,2.39 0 0 0 -2.32,-2.39l-2.26,0a2.32,2.32 0 0 0 -2.25,2.39a2.27,2.27 0 0 0 2.25,2.34l2.26,0z" class="cls-2"/>
       <path stroke="null" stroke-width="0" id="svg_16" d="m2304.030283,461.383876a2.28,2.28 0 0 0 2.27,-2.34l0,-16.33a7.73,7.73 0 0 0 -2.1,-5.58a6.8,6.8 0 0 0 -5,-2.14a7,7 0 0 0 -4.9,2a7.14,7.14 0 0 0 -4.89,-2c-4.05,0 -7.11,3.32 -7.11,7.72l0,16.33a2.3,2.3 0 0 0 2.26,2.34a2.36,2.36 0 0 0 2.31,-2.34l0,-16.33c0,-1.87 0.95,-3 2.54,-3s2.6,1.15 2.6,3l0,15.06a2.33,2.33 0 0 0 2.29,2.33a2.3,2.3 0 0 0 2.26,-2.33l0,-15.06c0,-1.84 1,-3 2.6,-3c1.23,0 2.54,0.79 2.54,3l0,16.33a2.33,2.33 0 0 0 2.33,2.34z" class="cls-2"/>
       <path stroke="null" stroke-width="0" id="svg_17" d="m2367.140283,443.583876l3.67,0a2.32,2.32 0 0 0 2.31,-2.33a2.36,2.36 0 0 0 -2.31,-2.4l-3.67,0c-3.19,0 -6.6,2.2 -6.6,8.37l0,5.77c0.17,5.38 2.51,8.35 6.6,8.35l3.67,0a2.33,2.33 0 0 0 2.31,-2.34a2.36,2.36 0 0 0 -2.31,-2.4l-3.67,0c-1.22,0 -2,-0.61 -2,-3.63l0,-0.98l4.55,0a2.3,2.3 0 0 0 2.26,-2.34a2.37,2.37 0 0 0 -2.26,-2.39l-4.59,0c0,-3.27 1.03,-3.68 2.04,-3.68z" class="cls-2"/>
       <path stroke="null" stroke-width="0" id="svg_18" d="m2311.830283,435.393876a2.33,2.33 0 0 0 -2.28,2.37a2.36,2.36 0 0 0 2.34,2.37a2.33,2.33 0 0 0 2.28,-2.37a2.36,2.36 0 0 0 -2.34,-2.37z" class="cls-2"/>
       <path stroke="null" stroke-width="0" id="svg_19" d="m2311.830283,442.273876a2.31,2.31 0 0 0 -2.26,2.34l0,14.38a2.29,2.29 0 1 0 4.57,0l0,-14.38a2.33,2.33 0 0 0 -2.31,-2.34z" class="cls-2"/>
       <path stroke="null" stroke-width="0" id="svg_20" d="m2323.580283,435.393876l-3.84,0a2.24,2.24 0 0 0 -1.62,0.73a2.37,2.37 0 0 0 -0.69,1.67l0,21.25a2.32,2.32 0 0 0 2.31,2.34a2.27,2.27 0 0 0 2.25,-2.34l0,-7.05l1.56,0a4.59,4.59 0 0 1 2.75,1a3.25,3.25 0 0 1 1.09,2.57l0,3.46a2.33,2.33 0 0 0 2.31,2.34a2.27,2.27 0 0 0 2.25,-2.34l0,-3.43a8,8 0 0 0 -2.61,-6.13l0,0a8.07,8.07 0 0 0 2.24,-5.68a8.21,8.21 0 0 0 -8,-8.39zm0,11.83l-1.59,0l0,-7.09l1.59,0a3.54,3.54 0 0 1 3.44,3.63a3.38,3.38 0 0 1 -3.44,3.46z" class="cls-2"/>
      </g>
     </g>
    </g>
   </g>
  </g>
 </g>
</svg>